<?xml version="1.0" encoding="UTF-8"?>
<svg version="1.1" xmlns="http://www.w3.org/2000/svg" width="473" height="467">
<path d="M0 0 C2.36635939 0.03380224 4.73278053 0.06353855 7.09924316 0.08911133 C10.44978127 0.1286565 13.7993603 0.18828131 17.1494751 0.25402832 C18.64574432 0.26840942 18.64574432 0.26840942 20.17224121 0.28308105 C27.40531103 0.45992493 33.29589335 1.35822596 39.0010376 6.17590332 C44.07340772 12.26274747 45.71670583 16.87837989 45.1885376 24.80090332 C43.25104686 30.97504048 40.51868711 35.62537253 36.6885376 40.80090332 C35.60165819 42.30412899 34.51574142 43.80805109 33.4307251 45.31262207 C32.61233154 46.44063232 32.61233154 46.44063232 31.77740479 47.59143066 C29.40163342 50.89516927 27.1058978 54.2515021 24.8135376 57.61340332 C20.05417694 64.56832306 15.22510613 71.47293004 10.38482666 78.3717041 C6.30019838 84.19873408 2.25732472 90.05266571 -1.76190186 95.92492676 C-5.12841813 100.83316503 -8.55555652 105.69638043 -11.9989624 110.55090332 C-15.33753957 115.25881465 -18.63238635 119.98292471 -21.8114624 124.80090332 C-24.94943366 129.55638554 -28.20153454 134.21808693 -31.4989624 138.86340332 C-35.78839765 144.90674399 -40.01409282 150.98865579 -44.1864624 157.11340332 C-49.25719987 164.55560612 -54.39983628 171.94400891 -59.57611084 179.31311035 C-63.57206316 185.00972755 -67.51830363 190.73805006 -71.4364624 196.48840332 C-76.03638423 203.2382433 -80.7068401 209.9328472 -85.43084717 216.59631348 C-90.17184889 223.29087412 -94.81906708 230.04778923 -99.45257568 236.8170166 C-101.73426949 240.14814199 -104.02318162 243.47430095 -106.3114624 246.80090332 C-109.02913687 250.7520947 -111.74580602 254.70394662 -114.45599365 258.66027832 C-120.12577066 266.93148243 -125.85477028 275.15921165 -131.61273193 283.3692627 C-136.61357355 290.50509483 -141.56036474 297.67666294 -146.48480225 304.86535645 C-148.75658304 308.1797985 -151.03438098 311.49010178 -153.3114624 314.80090332 C-154.22815669 316.13421767 -155.14482338 317.46755098 -156.0614624 318.80090332 C-157.89479574 321.46756999 -159.72812907 324.13423665 -161.5614624 326.80090332 C-162.01480957 327.46033936 -162.46815674 328.11977539 -162.9352417 328.79919434 C-163.85589456 330.13828123 -164.77663081 331.47731079 -165.69744873 332.81628418 C-167.92879932 336.06113334 -170.15890188 339.30682134 -172.38568115 342.55480957 C-176.34564549 348.32745468 -180.31323271 354.09405904 -184.32318115 359.83215332 C-193.56382538 373.05858431 -202.65091922 386.38136618 -211.68661499 399.74816895 C-212.33429337 400.70626465 -212.33429337 400.70626465 -212.99505615 401.68371582 C-213.4185434 402.3102002 -213.84203064 402.93668457 -214.27835083 403.58215332 C-217.56270225 408.43854002 -220.86329697 413.2834722 -224.1864624 418.11340332 C-224.60427979 418.72127686 -225.02209717 419.32915039 -225.45257568 419.95544434 C-228.4711452 424.33504861 -231.5484163 428.67163587 -234.66693115 432.98059082 C-235.98889012 434.72472044 -235.98889012 434.72472044 -235.8114624 436.80090332 C-228.19561714 432.64551661 -221.2383676 428.02997212 -214.3024292 422.84606934 C-209.95868203 419.60997493 -205.52324982 416.64476533 -200.9208374 413.78527832 C-194.27424275 409.54348173 -187.82318597 405.00090543 -181.32855225 400.53137207 C-178.061668 398.28542876 -174.78907943 396.04789082 -171.51605225 393.81091309 C-168.36060583 391.65414389 -165.20682334 389.49494894 -162.05316162 387.33557129 C-160.60191193 386.34204531 -159.15042964 385.34885896 -157.69866943 384.3560791 C-149.47363303 378.7302881 -141.2974388 373.04204867 -133.16644287 367.28112793 C-127.75506931 363.45234922 -122.30126594 359.68938819 -116.83099365 355.94543457 C-111.96080302 352.60614865 -107.12960278 349.21478086 -102.3114624 345.80090332 C-96.90138508 341.96822795 -91.46943223 338.17188899 -85.9989624 334.42590332 C-80.05743126 330.35677449 -74.14528745 326.2477677 -68.2489624 322.11340332 C-60.04137397 316.35858456 -51.82056921 310.62317468 -43.58831787 304.90368652 C-38.74851845 301.54103169 -33.91219237 298.17368188 -29.0848999 294.79309082 C-18.4075639 287.3241614 -7.65198689 279.99645449 3.21002197 272.79870605 C11.04145303 267.59699646 18.77041067 262.26034397 26.47369385 256.87121582 C33.50635158 251.95602043 40.58545386 247.11367888 47.6885376 242.30090332 C57.83770009 235.42157117 67.918109 228.44891579 77.97369385 221.43371582 C82.36569526 218.37034044 86.77156775 215.32812968 91.1885376 212.30090332 C100.5588822 205.8752114 109.87735207 199.37500608 119.20074463 192.88146973 C122.12190214 190.8473053 125.04372985 188.8141083 127.96588135 186.78137207 C129.38477661 185.79403076 129.38477661 185.79403076 130.83233643 184.78674316 C132.7309577 183.46668286 134.63052997 182.14798926 136.53106689 180.83068848 C141.52212367 177.36834306 146.49038247 173.87828256 151.4307251 170.34387207 C152.45746338 169.61490723 153.48420166 168.88594238 154.54205322 168.1348877 C156.49776061 166.74553901 158.4474264 165.34762975 160.38970947 163.9395752 C168.24059985 158.38539714 175.14693132 154.80194258 184.90338135 156.23449707 C191.12256272 157.77600356 195.86718237 162.48403807 199.1885376 167.80090332 C202.2240584 177.14648994 201.49822418 187.57297463 201.48931885 197.27746582 C201.49321419 199.05622455 201.49755056 200.83498237 201.50230408 202.61373901 C201.50972571 206.32361889 201.50950345 210.0334035 201.50421143 213.74328613 C201.49840438 218.47847176 201.51539728 223.21326782 201.5385561 227.94838905 C201.55333691 231.61514534 201.55415954 235.28180852 201.55104637 238.94858932 C201.55155681 240.69396108 201.55674197 242.43933843 201.56685829 244.18468094 C201.66415842 263.30595104 201.66415842 263.30595104 196.38458252 271.6529541 C187.91924839 279.93288847 173.26189875 283.71411755 162.3760376 287.92590332 C160.68965415 288.58431841 159.00354256 289.24343018 157.31768799 289.90319824 C153.89890716 291.24026157 150.47889996 292.57410217 147.05767822 293.90490723 C140.72715381 296.36820973 134.40487541 298.85231541 128.08465576 301.34191895 C126.76957263 301.85991991 125.45438559 302.37765714 124.13909912 302.8951416 C111.94917659 307.69161272 99.78607158 312.55423749 87.6260376 317.42590332 C70.12545181 324.43706644 52.60669792 331.40088167 35.07403564 338.3314209 C33.05099998 339.1311314 31.02796945 339.93085487 29.00494385 340.73059082 C27.98549179 341.13357895 26.96603973 341.53656708 25.91569519 341.95176697 C17.78363702 345.16748803 9.65549259 348.39301619 1.52838135 351.62121582 C-42.14099263 368.96525129 -42.14099263 368.96525129 -60.1239624 375.92590332 C-91.9658463 388.25335116 -123.70495112 400.85244225 -155.32440186 413.73962402 C-165.77152674 417.99453624 -176.25312834 422.15254095 -186.77655029 426.2154541 C-192.74708452 428.53451425 -198.59108434 431.02520422 -204.4052124 433.71203613 C-207.22484841 434.9879672 -210.07886389 436.08947267 -212.9989624 437.11340332 C-213.92064209 437.43953613 -214.84232178 437.76566895 -215.79193115 438.10168457 C-216.45837646 438.33242676 -217.12482178 438.56316895 -217.8114624 438.80090332 C-195.98065417 434.47794129 -174.30765841 429.5554353 -152.6473999 424.45666504 C-136.17324089 420.5797147 -119.68567257 416.76257385 -103.19310379 412.96489334 C-80.84948614 407.81951715 -58.51344767 402.6429856 -36.1864624 397.42590332 C23.97718621 383.37203932 23.97718621 383.37203932 50.81497192 377.44226074 C64.140766 374.49659969 77.44879338 371.47608175 90.7510376 368.42590332 C91.75991028 368.19460724 92.76878296 367.96331116 93.80822754 367.7250061 C104.92398385 365.17496784 116.03573109 362.60824848 127.1416626 360.01574707 C128.58695595 359.67857666 128.58695595 359.67857666 130.06144714 359.33459473 C134.59812734 358.27589395 139.13423345 357.21485053 143.66925049 356.14904785 C147.70016841 355.20339645 151.73449444 354.27375197 155.77160645 353.35491943 C157.42836569 352.97515218 159.08387483 352.58990164 160.73828125 352.20001221 C163.27469835 351.60377632 165.81486653 351.02675692 168.35650635 350.45324707 C169.11151932 350.27161514 169.86653229 350.08998322 170.64442444 349.90284729 C176.76025782 348.55525342 182.7476565 348.4256467 188.6416626 350.78137207 C193.79307019 354.24177413 198.16022233 357.71595751 200.1885376 363.80090332 C201.28060879 371.70869234 201.34859738 379.65671468 201.35650635 387.62512207 C201.35983475 388.81136673 201.36316315 389.99761139 201.36659241 391.21980286 C201.37162342 393.70980444 201.37400193 396.19981268 201.37384033 398.68981934 C201.37603738 402.4880273 201.39426287 406.2859493 201.41314697 410.08410645 C201.41607964 412.514444 201.41806528 414.94478293 201.41900635 417.37512207 C201.42619186 418.50238205 201.43337738 419.62964203 201.44078064 420.7910614 C201.41366714 430.17690344 200.70778241 437.0879594 194.0479126 444.10559082 C187.13610903 450.40752937 178.34538149 449.95028539 169.53924561 449.91442871 C168.58445045 449.91457757 167.62965529 449.91472643 166.64592695 449.9148798 C163.45242557 449.9141866 160.25898208 449.9063482 157.06549072 449.89855957 C154.76902295 449.89663906 152.47255476 449.89517589 150.17608643 449.89413452 C145.21901173 449.89097004 140.26195403 449.8846933 135.30488586 449.87606812 C128.05189141 449.86360036 120.79890086 449.85740666 113.5458979 449.85313475 C101.66310167 449.84605581 89.78031216 449.83526921 77.89752197 449.82141113 C77.18651177 449.82058332 76.47550157 449.81975551 75.74294561 449.81890261 C68.60988844 449.81055772 61.47683169 449.80188031 54.34377504 449.79310779 C35.0635412 449.76944479 15.7833108 449.74989624 -3.49693519 449.7395348 C-5.53376082 449.73840135 -7.57058633 449.73713505 -9.60741186 449.73584414 C-45.71002621 449.71372543 -81.80014579 449.88154203 -117.89852536 450.43279159 C-144.75843946 450.84128788 -171.59936653 450.80145023 -198.46099854 450.46429443 C-202.94894857 450.41087657 -207.43698288 450.36857104 -211.92504692 450.32599831 C-216.30679858 450.28356548 -220.68848353 450.23612471 -225.07016373 450.18690109 C-227.1235637 450.16415388 -229.17697762 450.14262854 -231.2304039 450.12239456 C-234.01646206 450.09391583 -236.80236064 450.05901954 -239.58831787 450.02209473 C-240.41438538 450.01476822 -241.24045288 450.00744171 -242.09155273 449.99989319 C-247.69694608 449.91541964 -247.69694608 449.91541964 -248.8114624 448.80090332 C-248.91236711 446.52545549 -248.94071386 444.24679826 -248.94289017 441.96911526 C-248.9449428 441.24266913 -248.94699543 440.516223 -248.94911027 439.76776335 C-248.95482191 437.30251071 -248.95331793 434.8373132 -248.9519043 432.37205505 C-248.95448557 430.59910392 -248.95749806 428.82615337 -248.9609077 427.05320364 C-248.96900925 422.15682669 -248.97076902 417.26046437 -248.97150517 412.3640815 C-248.97335032 407.09259083 -248.98089502 401.82110784 -248.98764038 396.54962158 C-249.00124776 385.01025649 -249.00725248 373.47089486 -249.01165104 361.93152308 C-249.01441005 354.73004441 -249.01864683 347.52856708 -249.02315521 340.32708931 C-249.03535223 320.40039498 -249.0456499 300.47370173 -249.0490303 280.54700375 C-249.04924987 279.27051091 -249.04946944 277.99401808 -249.04969566 276.67884365 C-249.04991393 275.39923284 -249.05013221 274.11962203 -249.0503571 272.80123514 C-249.05080057 270.20810695 -249.05124714 267.61497877 -249.05169678 265.02185059 C-249.05191821 263.7355596 -249.05213964 262.44926862 -249.05236778 261.12399913 C-249.05631518 240.28460303 -249.07376552 219.44524192 -249.0970563 198.60585933 C-249.12075881 177.22595303 -249.1332317 155.84606428 -249.13439822 134.46614462 C-249.13531573 122.45595081 -249.14108692 110.44580254 -249.15921783 98.43562126 C-249.17460415 88.20713781 -249.17974806 77.97871395 -249.17147973 67.75022113 C-249.1675677 62.5300663 -249.16852976 57.31003155 -249.18253708 52.08989143 C-249.19524309 47.31103358 -249.1941075 42.53238644 -249.18194637 37.75352902 C-249.17998361 36.02462386 -249.18309443 34.29570394 -249.19179073 32.56681954 C-249.2028691 30.21548414 -249.19540484 27.86489423 -249.1833992 25.51357937 C-249.18399629 24.20788351 -249.18459338 22.90218764 -249.18520856 21.55692524 C-248.66507704 16.32978018 -247.36969986 11.67209224 -243.9442749 7.55871582 C-243.28169678 7.0198877 -242.61911865 6.48105957 -241.9364624 5.92590332 C-241.27904053 5.37160645 -240.62161865 4.81730957 -239.9442749 4.24621582 C-235.38338097 1.15550015 -231.50282128 0.54537735 -226.0368042 0.51037598 C-225.37592804 0.50365875 -224.71505188 0.49694153 -224.03414917 0.49002075 C-221.85958232 0.47109708 -219.68532511 0.46711929 -217.51068115 0.46496582 C-215.98999406 0.45853328 -214.46930819 0.45180459 -212.94862366 0.4447937 C-209.76363254 0.43283453 -206.57874977 0.4291114 -203.39373779 0.43029785 C-199.32850334 0.43050081 -195.26396978 0.40321737 -191.19890118 0.36875343 C-188.05801759 0.34642572 -184.91730101 0.34246212 -181.77634621 0.3435173 C-180.27853801 0.34116945 -178.78072464 0.33239219 -177.28299522 0.31685257 C-160.6353601 0.16031423 -160.6353601 0.16031423 -154.30686951 6.24832153 C-149.08495741 12.16440705 -148.4408759 16.51037001 -148.57086182 24.21478271 C-148.96393644 30.07350919 -150.23434968 35.62736864 -151.6083374 41.32434082 C-151.91327893 42.63538102 -152.21690593 43.94672754 -152.51934814 45.25834656 C-153.17327566 48.08200464 -153.83603059 50.90338374 -154.50592041 53.72329712 C-155.5878723 58.27834096 -156.64972339 62.83793534 -157.70892334 67.39831543 C-159.04824601 73.15871156 -160.39247772 78.91792271 -161.74254227 84.67581081 C-164.49397477 96.4123415 -167.20649216 108.15761867 -169.9052124 119.90637207 C-170.11744635 120.83029818 -170.32968029 121.75422428 -170.54834557 122.70614815 C-171.40724575 126.44582787 -172.26593075 130.18555687 -173.12423229 133.92537403 C-174.6365378 140.51471173 -176.15167889 147.10339272 -177.66815186 153.69177246 C-182.0707514 172.82298152 -186.44255109 191.96028216 -190.7489624 211.11340332 C-196.35306088 236.03701589 -202.18967391 260.90604108 -208.00839996 285.78020477 C-214.77658083 314.7139233 -221.47046097 343.66073957 -227.97647095 372.65470886 C-229.40265881 379.00438178 -230.84888674 385.34924203 -232.30755615 391.69152832 C-232.59980827 392.96323631 -232.59980827 392.96323631 -232.89796448 394.26063538 C-233.78926929 398.13725893 -234.68294523 402.01331342 -235.58026123 405.8885498 C-235.88136366 407.19655616 -236.18239418 408.50457908 -236.4833374 409.81262207 C-236.7421167 410.93112549 -237.000896 412.04962891 -237.26751709 413.20202637 C-237.87974944 415.68463521 -237.87974944 415.68463521 -237.8114624 417.80090332 C-229.69492761 398.01196769 -221.75191344 378.15739853 -213.86804962 358.27487564 C-212.27630143 354.26132503 -210.68317884 350.24831996 -209.090271 346.23522949 C-205.61724856 337.48462396 -202.14641839 328.73314995 -198.67614746 319.98145294 C-197.59144195 317.2460591 -196.50654613 314.51074077 -195.42162704 311.77543163 C-186.54071103 289.38472867 -177.66982751 266.99014103 -168.8359375 244.58084106 C-162.02556094 227.30852697 -155.16589698 210.05576461 -148.3114624 192.80090332 C-137.53830282 165.68507735 -137.53830282 165.68507735 -126.8114624 138.55090332 C-126.52880524 137.83411407 -126.24614807 137.11732483 -125.95492554 136.3788147 C-124.81681477 133.49264526 -123.6787612 130.60645328 -122.54078674 127.7202301 C-112.10141242 101.24660272 -101.62455263 74.78793008 -91.0614624 48.36340332 C-90.50898331 46.98026443 -90.50898331 46.98026443 -89.94534302 45.56918335 C-87.89866496 40.44675676 -85.84564493 35.32696289 -83.78240967 30.21118164 C-83.12812223 28.58697931 -82.47565261 26.96204365 -81.82489014 25.33642578 C-80.88289762 22.98521341 -79.93401672 20.63689565 -78.9833374 18.28918457 C-78.56776581 17.24632042 -78.56776581 17.24632042 -78.14379883 16.18238831 C-75.51967705 9.7437382 -72.95255056 5.38020024 -66.56976318 2.17102051 C-62.91931986 0.68687532 -59.63329771 0.35970881 -55.6786499 0.25402832 C-54.98865906 0.23316162 -54.29866821 0.21229492 -53.58776855 0.1907959 C-51.28739725 0.12766958 -48.98739489 0.08782393 -46.6864624 0.05090332 C-45.88698181 0.03410522 -45.08750122 0.01730713 -44.26379395 0 C-29.51024366 -0.30547746 -14.7542638 -0.21225547 0 0 Z " fill="#DBD4C9" transform="translate(260.81146240234375,7.1990966796875)"/>
<path d="M0 0 C4.25171004 3.47361931 7.3298007 7.11100084 8.10346985 12.71321106 C8.76292725 19.91565921 8.95376105 27.05867112 8.9609375 34.2890625 C8.9642659 35.47530716 8.9675943 36.66155182 8.97102356 37.88374329 C8.97605457 40.37374487 8.97843308 42.86375311 8.97827148 45.35375977 C8.98046853 49.15196773 8.99869402 52.94988973 9.01757812 56.74804688 C9.02051079 59.17838443 9.02249643 61.60872336 9.0234375 64.0390625 C9.03062302 65.16632248 9.03780853 66.29358246 9.04521179 67.45500183 C9.00227795 82.31735002 9.00227795 82.31735002 3.79296875 88.46484375 C-3.60837766 94.92999982 -12.68714699 94.15385798 -21.89247131 94.06611633 C-23.59553583 94.0682985 -25.2985987 94.07267969 -27.00165266 94.07906216 C-31.66758188 94.09021667 -36.33293479 94.07027815 -40.99879062 94.04517186 C-46.03548874 94.02354867 -51.07215523 94.03088861 -56.10888672 94.03468323 C-64.83071128 94.03730303 -73.55234859 94.02163597 -82.27412605 93.99349403 C-94.88426866 93.95283231 -107.49432086 93.93983406 -120.10452192 93.93355408 C-140.56444287 93.9226151 -161.02426406 93.88935162 -181.48413086 93.84204102 C-201.35717266 93.79613518 -221.23018735 93.76074826 -241.10327148 93.73950195 C-242.32856216 93.73818834 -243.55385283 93.73687472 -244.81627352 93.73552129 C-250.96329092 93.72899603 -257.11030852 93.72267751 -263.25732625 93.71646178 C-314.24063019 93.66464113 -365.22382585 93.5765866 -416.20703125 93.46484375 C-416.53703125 92.80484375 -416.86703125 92.14484375 -417.20703125 91.46484375 C-411.9838747 88.97197358 -406.8058045 87.52132583 -401.171875 86.2109375 C-398.19420443 85.50702518 -398.19420443 85.50702518 -395.31640625 84.46484375 C-391.75987772 83.32103558 -388.19204407 82.65660151 -384.51953125 82.02734375 C-374.70551947 80.34609283 -374.70551947 80.34609283 -365.20703125 77.46484375 C-364.87703125 76.80484375 -364.54703125 76.14484375 -364.20703125 75.46484375 C-361.90865315 74.76965621 -359.66954397 74.20232692 -357.32910156 73.6875 C-356.23915516 73.43725964 -356.23915516 73.43725964 -355.12718964 73.18196392 C-352.68157244 72.6225228 -350.2334211 72.07507204 -347.78515625 71.52734375 C-346.0463099 71.13179094 -344.30764574 70.73543648 -342.56915283 70.33833313 C-338.82945474 69.48565409 -335.08865802 68.63804104 -331.34692383 67.79434204 C-325.43053071 66.46009043 -319.51673046 65.11461666 -313.60351562 63.76635742 C-312.6124028 63.54039603 -311.62128998 63.31443464 -310.60014343 63.08162594 C-308.58378252 62.62189686 -306.56743022 62.16213 -304.55108643 61.70232582 C-301.4836141 61.00318751 -298.41590257 60.30510695 -295.34814453 59.60722351 C-276.26227627 55.26308742 -257.20023324 50.81966147 -238.14370346 46.34883881 C-234.09969428 45.40036028 -230.05534036 44.45335449 -226.01098633 43.50634766 C-224.84092844 43.23236271 -224.84092844 43.23236271 -223.64723301 42.95284271 C-222.10200905 42.5910097 -220.55678361 42.22918304 -219.01155663 41.86736298 C-216.77691206 41.34406906 -214.54229948 40.82063876 -212.30769348 40.29718018 C-188.75642601 34.78085797 -165.19488696 29.32440622 -141.57592773 24.10510254 C-128.25168484 21.15982908 -114.94521773 18.13966499 -101.64453125 15.08984375 C-100.13122223 14.74289963 -100.13122223 14.74289963 -98.58734131 14.38894653 C-87.471585 11.83890827 -76.35983775 9.27218891 -65.25390625 6.6796875 C-64.29037735 6.45490723 -63.32684845 6.23012695 -62.3341217 5.99853516 C-57.79744151 4.93983438 -53.2613354 3.87879096 -48.72631836 2.81298828 C-44.69540044 1.86733688 -40.66107441 0.9376924 -36.6239624 0.01885986 C-34.96720316 -0.3609074 -33.31169402 -0.74615793 -31.6572876 -1.13604736 C-29.12087049 -1.73228325 -26.58070232 -2.30930265 -24.0390625 -2.8828125 C-23.28404953 -3.06444443 -22.52903656 -3.24607635 -21.75114441 -3.43321228 C-13.75526918 -5.19506415 -6.81372931 -4.69208904 0 0 Z " fill="#DDD7CB" transform="translate(453.20703125,360.53515625)"/>
<path d="M0 0 C1.16856706 3.50570118 1.12414781 6.24262947 1.12304783 9.94405651 C1.12420167 10.65832337 1.12535552 11.37259022 1.12654433 12.10850152 C1.12920728 14.52020792 1.12469145 16.93184859 1.12025452 19.34355164 C1.12069028 21.08268191 1.12156529 22.82181213 1.12284368 24.56094199 C1.12508756 29.35423485 1.1210688 34.14750551 1.11606562 38.94079554 C1.11175978 44.10439023 1.11320764 49.26798361 1.1139679 54.43157959 C1.11449305 63.38261399 1.11134717 72.33364112 1.10573006 81.28467369 C1.09761385 94.22647295 1.09499971 107.16826868 1.09374207 120.11007021 C1.09155174 141.10569008 1.08489216 162.10130607 1.07543945 183.09692383 C1.06626484 203.49601217 1.05918425 223.89509946 1.05493164 244.29418945 C1.05466892 245.55092642 1.05440619 246.80766339 1.05413551 248.10248329 C1.0528305 254.40696538 1.05156679 260.71144748 1.05032361 267.01592958 C1.03995159 319.34395573 1.02233379 371.67197768 1 424 C1.48779116 422.72817427 1.97284838 421.45529976 2.45675659 420.18199158 C2.86237226 419.11891486 2.86237226 419.11891486 3.27618217 418.03436184 C4.16760677 415.52892454 4.69611935 413.06277417 5.1328125 410.44140625 C5.29910156 409.47912109 5.46539063 408.51683594 5.63671875 407.52539062 C5.79785156 406.54763672 5.95898438 405.56988281 6.125 404.5625 C6.45749076 402.58405308 6.79324513 400.60615088 7.1328125 398.62890625 C7.34768311 397.3306189 7.34768311 397.3306189 7.56689453 396.00610352 C8 394 8 394 9 393 C9.45101723 390.54378454 9.85968698 388.09098185 10.25 385.625 C11.48909811 378.16564538 13.23603379 370.9320983 15.22241211 363.63989258 C16.72162419 358.12515958 17.98520618 352.62749298 19 347 C19.66 347 20.32 347 21 347 C20.34993398 355.73649327 18.19754089 364.08064031 16.125 372.5625 C13.42092269 383.66104885 10.99215689 394.75011687 9 406 C9.99 403.69 10.98 401.38 12 399 C13.21307644 402.63922933 12.66832799 403.55952434 11.3125 407.0625 C10.94253906 408.03445313 10.57257812 409.00640625 10.19140625 410.0078125 C8.75036307 413.62695701 7.26817938 417.22775046 5.734375 420.80859375 C4.78816767 423.24691948 4.78816767 423.24691948 5 427 C5.48859497 426.28589966 5.48859497 426.28589966 5.98706055 425.55737305 C6.44894775 424.88230713 6.91083496 424.20724121 7.38671875 423.51171875 C8.16728638 422.37053589 8.16728638 422.37053589 8.96362305 421.20629883 C10.12175503 419.51412382 11.28078574 417.82256358 12.44067383 416.1315918 C15.54417899 411.60426831 18.63148261 407.06735127 21.6875 402.5078125 C22.27442627 401.63680908 22.86135254 400.76580566 23.46606445 399.8684082 C24.60288363 398.18051146 25.73434843 396.48899464 26.86010742 394.79370117 C27.63124878 393.65251831 27.63124878 393.65251831 28.41796875 392.48828125 C28.86938232 391.81321533 29.3207959 391.13814941 29.78588867 390.44262695 C30.38687378 389.72852661 30.38687378 389.72852661 31 389 C31.66 389 32.32 389 33 389 C33 388.34 33 387.68 33 387 C33.66 387.33 34.32 387.66 35 388 C32.85421918 391.25629282 30.70351768 394.50927815 28.54858398 397.75952148 C27.46413576 399.39727422 26.38338748 401.03747499 25.30273438 402.67773438 C21.53449018 408.35614844 17.69249427 413.84063592 13.33227539 419.08227539 C11.70231955 421.18679953 11.70231955 421.18679953 11 425 C14.3 423.35 17.6 421.7 21 420 C21 420.66 21 421.32 21 422 C19.33720673 423.0064275 17.67016516 424.00585407 16 425 C15.34 425.99 14.68 426.98 14 428 C20.20120349 427.64898848 24.70228306 425.94000815 30.28125 423.2578125 C32.65400151 422.16007401 34.94860176 421.28454401 37.4375 420.5 C43.84280143 418.47666471 50.23039678 415.97583854 56.18359375 412.85546875 C58.53031912 411.7502368 60.43984596 411.85776922 63 412 C60.8764986 414.1235014 59.33673177 414.85447814 56.59765625 416.0234375 C55.2686731 416.59300171 55.2686731 416.59300171 53.9128418 417.17407227 C52.972229 417.57037842 52.03161621 417.96668457 51.0625 418.375 C50.1135083 418.778396 49.1645166 419.18179199 48.18676758 419.59741211 C41.85410426 422.2705043 35.50604274 424.77941951 29 427 C34.62049317 425.90365488 40.22473324 424.74469068 45.8203125 423.52734375 C47.01527344 423.26759766 48.21023437 423.00785156 49.44140625 422.74023438 C51.90540728 422.20327551 54.36894765 421.66419854 56.83203125 421.12304688 C62.88132035 419.81182259 68.83959236 418.62218581 75 418 C72.28098256 421.71352187 68.3086311 422.15509618 64.0625 423.0625 C63.30267822 423.23386475 62.54285645 423.40522949 61.76000977 423.58178711 C57.3381273 424.55981554 52.91499099 425.37541698 48.4375 426.0625 C44.32923344 426.69497156 40.77354959 427.68357977 36.9453125 429.27734375 C34.02889638 430.36075134 31.03336947 430.90530302 27.98046875 431.47265625 C25.70351912 431.96514808 25.70351912 431.96514808 23 434 C75.25682162 434.09150711 127.51363516 434.16201411 179.77052111 434.20426132 C185.93653243 434.20926429 192.1025436 434.21444156 198.26855469 434.21972656 C199.4961235 434.2207758 200.7236923 434.22182505 201.98846017 434.22290608 C221.87869992 434.2403228 241.76889355 434.27186747 261.65910591 434.30861118 C282.06037588 434.34598534 302.46162165 434.36822839 322.86292446 434.37635398 C335.4569156 434.38184906 348.05077637 434.39921989 360.64472739 434.43166587 C369.27475814 434.45277023 377.90472124 434.4592093 386.53477593 434.45400551 C391.5177644 434.45143738 396.50052467 434.45544091 401.48347282 434.4768219 C406.04335047 434.49624515 410.6028458 434.49729756 415.16274081 434.48359558 C416.8142575 434.48190138 418.46579777 434.48701139 420.11726786 434.49953273 C422.3596392 434.51554869 424.6006243 434.50695819 426.84297371 434.49219131 C428.08921583 434.4937102 429.33545796 434.49522908 430.61946499 434.49679399 C434.80492431 433.88171057 436.68736733 432.55548964 440 430 C440.66 430.33 441.32 430.66 442 431 C433.8812202 437.76564983 426.63481572 438.15540005 416.35070801 438.11352539 C415.39591285 438.11367425 414.4411177 438.11382311 413.45738935 438.11397648 C410.26388798 438.11328328 407.07044448 438.10544488 403.87695312 438.09765625 C401.58048536 438.09573574 399.28401716 438.09427257 396.98754883 438.0932312 C392.03047414 438.09006672 387.07341643 438.08378998 382.11634827 438.07516479 C374.86335381 438.06269704 367.61036326 438.05650334 360.3573603 438.05223143 C348.47456407 438.04515249 336.59177456 438.03436589 324.70898438 438.02050781 C323.99797418 438.01968 323.28696398 438.01885219 322.55440801 438.01799929 C315.42135085 438.0096544 308.2882941 438.00097699 301.15523744 437.99220446 C281.8750036 437.96854147 262.5947732 437.94899292 243.31452721 437.93863147 C241.27770159 437.93749803 239.24087607 437.93623173 237.20405054 437.93494081 C201.10143619 437.91282211 165.01131661 438.08063871 128.91293705 438.63188827 C102.05302294 439.04038456 75.21209587 439.00054691 48.35046387 438.66339111 C43.86251383 438.60997325 39.37447952 438.56766772 34.88641548 438.52509499 C30.50466382 438.48266216 26.12297887 438.43522139 21.74129868 438.38599777 C19.6878987 438.36325056 17.63448478 438.34172522 15.5810585 438.32149124 C12.79500035 438.29301251 10.00910176 438.25811622 7.22314453 438.22119141 C6.39707703 438.2138649 5.57100952 438.20653839 4.71990967 438.19898987 C-0.88548368 438.11451632 -0.88548368 438.11451632 -2 437 C-2.09999807 434.72266621 -2.12740459 432.44215318 -2.12863445 430.16262531 C-2.13038749 429.43557999 -2.13214053 428.70853467 -2.13394669 427.95945767 C-2.13864565 425.49218449 -2.13613126 423.02496925 -2.13371277 420.55769348 C-2.1355788 418.78331713 -2.13787866 417.00894119 -2.14057809 415.23456591 C-2.14672849 410.33432597 -2.14655871 405.43410301 -2.14538372 400.53386009 C-2.14518052 395.25831897 -2.15069077 389.98278343 -2.15544128 384.70724487 C-2.1637666 374.36141856 -2.16649699 364.01559793 -2.16705366 353.66976855 C-2.16752803 345.26261452 -2.16957877 336.85546238 -2.17275429 328.44830894 C-2.18156673 304.63413537 -2.18617285 280.81996632 -2.18542381 257.00579111 C-2.18538386 255.72053776 -2.1853439 254.43528441 -2.18530273 253.11108398 C-2.18526185 251.82426838 -2.18522097 250.53745278 -2.18517885 249.21164276 C-2.18477243 228.35797089 -2.19433956 207.50431707 -2.2084411 186.65065042 C-2.22279241 165.25945376 -2.22971194 143.86826591 -2.22884732 122.47706431 C-2.22851488 110.45912107 -2.23128267 98.44119675 -2.24202538 86.42325783 C-2.25111412 76.18960183 -2.25331912 65.95597333 -2.24651595 55.72231505 C-2.24324223 50.49838317 -2.24322461 45.27450408 -2.2518692 40.05057716 C-2.25969786 35.27062828 -2.25834015 30.49077437 -2.24958507 25.71082791 C-2.24804201 23.97926814 -2.24989637 22.24770142 -2.25544515 20.51614986 C-2.26247832 18.16617763 -2.25723285 15.81654104 -2.24888897 13.46658039 C-2.24910634 12.16012509 -2.24932371 10.85366978 -2.24954766 9.50762492 C-2.0008186 6.0115062 -1.26473192 3.25462181 0 0 Z " fill="#7A7572" transform="translate(14,19)"/>
<path d="M0 0 C0.66 0.33 1.32 0.66 2 1 C-6.51333913 8.09444927 -13.99162914 8.15175783 -24.71238708 8.12025452 C-25.78009167 8.12110894 -26.84779626 8.12196337 -27.94785553 8.12284368 C-31.51920926 8.12448848 -35.09051584 8.11899346 -38.66186523 8.11352539 C-41.22444152 8.11324328 -43.78701788 8.11340173 -46.34959412 8.1139679 C-51.86341894 8.11419549 -57.37722863 8.11136227 -62.89105034 8.10573006 C-70.86304239 8.0975922 -78.83502873 8.09499749 -86.80702449 8.09374207 C-99.74203976 8.09155514 -112.67704871 8.08490479 -125.61206055 8.07543945 C-138.17488575 8.06625604 -150.73770923 8.05917975 -163.30053711 8.05493164 C-164.0753169 8.05466892 -164.85009668 8.05440619 -165.64835464 8.05413551 C-169.53531872 8.05283044 -173.4222828 8.05156674 -177.3092469 8.05032361 C-209.53950252 8.03996218 -241.76975038 8.02235363 -274 8 C-274 7.67 -274 7.34 -274 7 C-326.8 6.67 -379.6 6.34 -434 6 C-430.76538003 3.84358669 -428.32927039 3.18899027 -424.5625 2.3125 C-423.42941406 2.04050781 -422.29632813 1.76851563 -421.12890625 1.48828125 C-418.25083111 1.03914343 -416.68974913 1.01530069 -414 2 C-414.99 2.66 -415.98 3.32 -417 4 C-364.74317838 4.09150711 -312.48636484 4.16201411 -260.22947889 4.20426132 C-254.06346757 4.20926429 -247.8974564 4.21444156 -241.73144531 4.21972656 C-240.5038765 4.2207758 -239.2763077 4.22182505 -238.01153983 4.22290608 C-218.12130008 4.2403228 -198.23110645 4.27186747 -178.34089409 4.30861118 C-157.93962412 4.34598534 -137.53837835 4.36822839 -117.13707554 4.37635398 C-104.5430844 4.38184906 -91.94922363 4.39921989 -79.35527261 4.43166587 C-70.72524186 4.45277023 -62.09527876 4.4592093 -53.46522407 4.45400551 C-48.4822356 4.45143738 -43.49947533 4.45544091 -38.51652718 4.4768219 C-33.95664953 4.49624515 -29.3971542 4.49729756 -24.83725919 4.48359558 C-23.1857425 4.48190138 -21.53420223 4.48701139 -19.88273214 4.49953273 C-17.6403608 4.51554869 -15.3993757 4.50695819 -13.15702629 4.49219131 C-11.91078417 4.4937102 -10.66454204 4.49522908 -9.38053501 4.49679399 C-5.19507569 3.88171057 -3.31263267 2.55548964 0 0 Z " fill="#9C9891" transform="translate(454,449)"/>
<path d="M0 0 C0 0.66 0 1.32 0 2 C-0.78375 2.433125 -1.5675 2.86625 -2.375 3.3125 C-5.41686215 5.26798281 -5.98981901 6.60211849 -7 10 C-7.66 10 -8.32 10 -9 10 C-9 145.96 -9 281.92 -9 422 C-8.01 421.67 -7.02 421.34 -6 421 C-6.63156995 426.05255964 -8.13459373 430.29593201 -10 435 C-10.33 435 -10.66 435 -11 435 C-11.04575269 381.2144351 -11.08100662 327.42887217 -11.10213066 273.64329164 C-11.10463215 267.29702513 -11.10722078 260.95075865 -11.10986328 254.60449219 C-11.1103879 253.341036 -11.11091252 252.07757982 -11.11145304 250.77583708 C-11.1201616 230.3036285 -11.13593406 209.83143112 -11.15430559 189.35922919 C-11.1729921 168.3613105 -11.18411408 147.36339768 -11.18817699 126.36547101 C-11.19092464 113.40300931 -11.19961073 100.44057927 -11.21583293 87.47812732 C-11.22638439 78.5958102 -11.2296048 69.71350951 -11.22700275 60.83118658 C-11.2257186 55.70244668 -11.22772179 50.57376222 -11.23841095 45.44503212 C-11.24812082 40.75201612 -11.24864964 36.059093 -11.24179779 31.36607279 C-11.24095054 29.66611001 -11.24350675 27.9661415 -11.24976636 26.26619004 C-11.25777026 23.95882413 -11.2534797 21.65179529 -11.24609566 19.34443474 C-11.2468551 18.06173946 -11.24761454 16.77904419 -11.24839699 15.45747936 C-10.93541785 11.10107025 -10.25933541 7.44348352 -7.34375 4.1015625 C-6.7353125 3.61429688 -6.126875 3.12703125 -5.5 2.625 C-4.8915625 2.12226563 -4.283125 1.61953125 -3.65625 1.1015625 C-2 0 -2 0 0 0 Z " fill="#CEC7BF" transform="translate(25,10)"/>
<path d="M0 0 C3.76472112 2.67493343 5.77590887 4.51166587 7 9 C7.79556067 14.42322266 8.15255387 19.71747784 8.16113281 25.20092773 C8.16609772 25.97767853 8.17106262 26.75442932 8.17617798 27.55471802 C8.19065905 30.09768593 8.19757633 32.64059157 8.203125 35.18359375 C8.20595238 36.05866137 8.20877975 36.93372898 8.21169281 37.8353138 C8.22662487 42.4622337 8.23589329 47.08912287 8.24023438 51.71606445 C8.24572388 56.47485101 8.26977918 61.23335219 8.29820633 65.99204922 C8.31689295 69.67166452 8.32204141 73.3512117 8.32357025 77.03087044 C8.32658146 78.78462351 8.33455775 80.53837583 8.34775543 82.29208183 C8.48118648 101.37714398 8.48118648 101.37714398 3.25390625 109.8203125 C0.45224291 112.52972002 -2.58243189 114.21266217 -6.0625 115.875 C-6.99932617 116.35453125 -6.99932617 116.35453125 -7.95507812 116.84375 C-12.61123287 119.12958904 -12.61123287 119.12958904 -16 118 C-14.05780718 117.02890359 -12.11544495 116.05818268 -10.171875 115.08984375 C-8.31531568 114.15822495 -6.4690365 113.20616707 -4.625 112.25 C-2 111 -2 111 0 111 C0.28875 110.4225 0.5775 109.845 0.875 109.25 C2 107 2 107 3.05513 105.40864563 C4.49038298 101.74992451 4.26899152 98.08512434 4.24291992 94.21166992 C4.24481827 93.32500137 4.24671661 92.43833282 4.24867249 91.52479553 C4.25237731 88.59326334 4.24167731 85.66197895 4.23046875 82.73046875 C4.22927631 80.69029265 4.22882392 78.650116 4.2290802 76.60993958 C4.22751566 72.33196581 4.21923023 68.05407575 4.20581055 63.77612305 C4.18885314 58.30192647 4.18499538 52.82782217 4.18575573 47.35360241 C4.18548324 43.13876978 4.17998884 38.92395719 4.17275429 34.70913124 C4.16957918 32.69138045 4.16760293 30.6736274 4.16686058 28.65587425 C4.16468289 25.82938179 4.15590696 23.00298535 4.14526367 20.17651367 C4.14571686 19.34769684 4.14617004 18.51888 4.14663696 17.66494751 C4.12110874 13.00853394 3.77063323 8.59388235 3 4 C2.34 4 1.68 4 1 4 C0.67 2.68 0.34 1.36 0 0 Z " fill="#8A847F" transform="translate(454,169)"/>
<path d="M0 0 C0.66 0 1.32 0 2 0 C1.47350603 7.30723779 0.18347341 14.2114325 -1.5546875 21.3203125 C-1.81224319 22.39783279 -2.06979889 23.47535309 -2.3351593 24.58552551 C-2.88872187 26.89890544 -3.44516606 29.21159741 -4.00424194 31.52365112 C-5.48850714 37.66239053 -6.95190088 43.80611294 -8.41796875 49.94921875 C-8.71695572 51.1995137 -9.01594269 52.44980865 -9.32398987 53.73799133 C-12.84202846 68.47465814 -16.20879161 83.24541241 -19.57177734 98.01806641 C-19.89785225 99.44888802 -19.89785225 99.44888802 -20.23051453 100.90861511 C-20.63068935 102.66549757 -21.03002931 104.42257053 -21.42829895 106.17988586 C-22.55621359 111.13699231 -23.75066341 116.07204165 -25 121 C-25.33 121 -25.66 121 -26 121 C-26.33647798 114.54326034 -25.0656961 108.66470149 -23.6875 102.375 C-23.45603271 101.29541016 -23.22456543 100.21582031 -22.98608398 99.10351562 C-22.33213525 96.06717784 -21.66819294 93.03323011 -21 90 C-20.73960938 88.80632812 -20.47921875 87.61265625 -20.2109375 86.3828125 C-19.09459272 81.41978572 -17.87324341 76.48591647 -16.625 71.5546875 C-14.17609618 61.87646413 -11.74311883 52.20826234 -9.6875 42.4375 C-9.44882202 41.30610596 -9.44882202 41.30610596 -9.20532227 40.15185547 C-8.52529958 36.84717726 -7.94741542 33.59572974 -7.51171875 30.24609375 C-7.04799136 27.30443376 -6.39796219 25.27947155 -5.125 22.625 C-2.06253999 15.42710129 -1.1764951 7.68286953 0 0 Z " fill="#77726E" transform="translate(73,192)"/>
<path d="M0 0 C5.19355461 1.37476445 8.00427491 4.74341593 11 9 C13.80601471 17.41804412 13.15925536 27.04534391 13.16796875 35.82421875 C13.17129715 37.01046341 13.17462555 38.19670807 13.17805481 39.41889954 C13.18308582 41.90890112 13.18546433 44.39890936 13.18530273 46.88891602 C13.18749978 50.68712398 13.20572527 54.48504598 13.22460938 58.28320312 C13.22754204 60.71354068 13.22952768 63.14387961 13.23046875 65.57421875 C13.23765427 66.70147873 13.24483978 67.82873871 13.25224304 68.99015808 C13.21061848 83.39927237 13.21061848 83.39927237 8.875 88.5 C8.25625 88.995 7.6375 89.49 7 90 C7.32466248 89.15206879 7.64932495 88.30413757 7.98382568 87.43051147 C9.05831004 83.80315064 9.2537337 80.88724664 9.25878906 77.11181641 C9.2622937 76.45079422 9.26579834 75.78977203 9.26940918 75.10871887 C9.27815815 72.93955754 9.27240043 70.77072674 9.265625 68.6015625 C9.26697394 67.08230528 9.26891638 65.56304848 9.27142334 64.04379272 C9.27436562 60.86476519 9.27010708 57.68585033 9.26074219 54.50683594 C9.24936763 50.44967448 9.25590006 46.39277827 9.26788712 42.3356266 C9.27514663 39.19904619 9.27279875 36.06252766 9.26763153 32.92594528 C9.26630531 31.43095238 9.26790639 29.93595371 9.27259064 28.44096756 C9.89691468 15.97397771 9.89691468 15.97397771 5.2734375 4.94140625 C4.64695312 4.48636719 4.02046875 4.03132813 3.375 3.5625 C2.24442683 2.71572377 1.11770952 1.86368463 0 1 C0 0.67 0 0.34 0 0 Z " fill="#888580" transform="translate(449,359)"/>
<path d="M0 0 C-2.1235014 2.1235014 -3.66326823 2.85447814 -6.40234375 4.0234375 C-7.28833252 4.40314697 -8.17432129 4.78285645 -9.0871582 5.17407227 C-10.027771 5.57037842 -10.96838379 5.96668457 -11.9375 6.375 C-13.36098755 6.98009399 -13.36098755 6.98009399 -14.81323242 7.59741211 C-21.14589574 10.2705043 -27.49395726 12.77941951 -34 15 C-28.37950683 13.90365488 -22.77526676 12.74469068 -17.1796875 11.52734375 C-15.98472656 11.26759766 -14.78976563 11.00785156 -13.55859375 10.74023438 C-11.09459272 10.20327551 -8.63105235 9.66419854 -6.16796875 9.12304688 C-0.11867965 7.81182259 5.83959236 6.62218581 12 6 C9.28098256 9.71352187 5.3086311 10.15509618 1.0625 11.0625 C0.30267822 11.23386475 -0.45714355 11.40522949 -1.23999023 11.58178711 C-6.52581039 12.75090059 -11.82290283 13.70020558 -17.19140625 14.41015625 C-20.19196314 14.95987607 -20.19196314 14.95987607 -23.640625 16.421875 C-28.69106947 18.38709575 -33.8635422 19.26858989 -39.1875 20.1875 C-40.15880859 20.36474609 -41.13011719 20.54199219 -42.13085938 20.72460938 C-46.49002301 21.49844308 -50.56084594 22.09765643 -55 22 C-52.61284456 19.22022031 -50.45487022 18.2598847 -47 17.125 C-43.00960502 15.75099856 -39.19609569 14.2296477 -35.375 12.4375 C-31.43518871 10.60412247 -27.53688234 9.12367673 -23.3984375 7.81640625 C-17.75572303 5.89567771 -12.0985031 3.62408123 -6.81640625 0.85546875 C-4.46968088 -0.2497632 -2.56015404 -0.14223078 0 0 Z " fill="#72695F" transform="translate(77,431)"/>
<path d="M0 0 C-1.19625 0.433125 -2.3925 0.86625 -3.625 1.3125 C-6.27904523 2.2920246 -8.56878444 3.31341183 -11.0625 4.6875 C-14.60111196 6.26858194 -17.14277832 6 -21 6 C-22.41118071 6.40864306 -23.80723358 6.87172596 -25.1875 7.375 C-29.75040714 9.03070566 -34.26335214 9.7956655 -39.05078125 10.53125 C-46.0394173 11.22380029 -46.0394173 11.22380029 -52 14 C-55.19280616 14.54355355 -58.39639601 14.96590986 -61.60546875 15.40234375 C-64.96861862 15.90557295 -64.96861862 15.90557295 -67.95703125 17.00390625 C-72.65400292 18.54142586 -77.44934896 18.8804137 -82.34375 19.4375 C-85.7828556 19.96659317 -88.72101528 20.87202926 -92 22 C-94.11711125 22.4172409 -96.24280813 22.79332571 -98.375 23.125 C-99.43460938 23.29257812 -100.49421875 23.46015625 -101.5859375 23.6328125 C-102.38257813 23.75398438 -103.17921875 23.87515625 -104 24 C-104 23.34 -104 22.68 -104 22 C-103.2692627 21.82984375 -102.53852539 21.6596875 -101.78564453 21.484375 C-98.89924666 20.81205931 -96.01292098 20.13943468 -93.12664795 19.46658325 C-91.78523611 19.15390075 -90.44380525 18.84129986 -89.10235596 18.52877808 C-81.29948837 16.710651 -73.4985657 14.88489147 -65.703125 13.03515625 C-57.13992874 11.00398819 -48.57242064 8.99188849 -40 7 C-39.19457764 6.81272339 -38.38915527 6.62544678 -37.55932617 6.43249512 C-32.55638892 5.27105546 -27.55085386 4.12184597 -22.54180908 2.98703003 C-20.94112001 2.62306801 -19.34112878 2.25602212 -17.74188232 1.88577271 C-15.51989778 1.37217239 -13.29559498 0.87018158 -11.0703125 0.37109375 C-9.79945801 0.08161865 -8.52860352 -0.20785645 -7.21923828 -0.50610352 C-4.3083061 -0.95269959 -2.71256999 -1.01965769 0 0 Z " fill="#837F7B" transform="translate(332,382)"/>
<path d="M0 0 C2.36677315 0.03583654 4.73362439 0.0668529 7.1005249 0.09295654 C10.4590163 0.13243208 13.81657452 0.19176303 17.1746521 0.25704956 C18.1753775 0.26662186 19.17610291 0.27619415 20.20715332 0.28605652 C27.58984241 0.46607303 33.40483067 1.43389107 39.24887085 6.30392456 C41.24887085 8.80392456 41.24887085 8.80392456 41.24887085 11.80392456 C40.65074585 11.16454956 40.05262085 10.52517456 39.43637085 9.86642456 C37.34076748 7.60082067 37.34076748 7.60082067 34.24887085 6.80392456 C33.77225604 6.29652331 33.29564123 5.78912207 32.80458355 5.26634502 C30.01451789 2.64359269 26.0140024 3.36546445 22.3711853 3.37155151 C21.46366516 3.36135986 20.55614502 3.35116821 19.62112427 3.34066772 C16.61807149 3.31044623 13.6153372 3.30125778 10.6121521 3.29220581 C8.53134595 3.27536592 6.45055001 3.25721662 4.36976624 3.23780823 C-1.10958667 3.19022726 -6.58889817 3.16047025 -12.06838989 3.1343689 C-17.65868307 3.10460421 -23.24883344 3.05805987 -28.83901978 3.01290894 C-39.80964833 2.92678369 -50.7803062 2.85947943 -61.75112915 2.80392456 C-61.75112915 2.14392456 -61.75112915 1.48392456 -61.75112915 0.80392456 C-41.16300562 -0.06350283 -20.60506585 -0.31740051 0 0 Z " fill="#A29F98" transform="translate(260.7511291503906,7.196075439453125)"/>
<path d="M0 0 C0 0.66 0 1.32 0 2 C-0.78375 2.433125 -1.5675 2.86625 -2.375 3.3125 C-5.41686215 5.26798281 -5.98981901 6.60211849 -7 10 C-7.66 10 -8.32 10 -9 10 C-9.33 67.09 -9.66 124.18 -10 183 C-10.33 183 -10.66 183 -11 183 C-11.04671711 160.8080033 -11.08198744 138.6160147 -11.10362434 116.42397881 C-11.11393768 106.1198754 -11.12799914 95.81580255 -11.15087891 85.51171875 C-11.17081099 76.53086773 -11.18371602 67.55003883 -11.18817699 58.5691663 C-11.19078467 53.81371072 -11.19691511 49.05831844 -11.21146011 44.30288315 C-11.22504112 39.82632951 -11.22922157 35.34986521 -11.22621536 30.87329292 C-11.22676529 29.23099978 -11.23073965 27.58870362 -11.23841095 25.9464283 C-11.24838036 23.70195896 -11.24596169 21.45782572 -11.24050903 19.21334839 C-11.24235262 17.95786634 -11.24419621 16.7023843 -11.24609566 15.40885735 C-10.9331203 11.07359861 -10.24453114 7.42651447 -7.34375 4.1015625 C-6.7353125 3.61429688 -6.126875 3.12703125 -5.5 2.625 C-4.8915625 2.12226563 -4.283125 1.61953125 -3.65625 1.1015625 C-2 0 -2 0 0 0 Z " fill="#C9C4BF" transform="translate(25,10)"/>
<path d="M0 0 C0.66 0 1.32 0 2 0 C1.34993398 8.73649327 -0.80245911 17.08064031 -2.875 25.5625 C-5.57907731 36.66104885 -8.00784311 47.75011687 -10 59 C-9.01 56.69 -8.02 54.38 -7 52 C-5.79928512 55.60214463 -6.28153208 56.41890313 -7.625 59.875 C-7.99625 60.83921875 -8.3675 61.8034375 -8.75 62.796875 C-9.1625 63.85390625 -9.575 64.9109375 -10 66 C-10.433125 67.18078125 -10.86625 68.3615625 -11.3125 69.578125 C-11.9621875 71.33382812 -11.9621875 71.33382812 -12.625 73.125 C-13.02976562 74.22070312 -13.43453125 75.31640625 -13.8515625 76.4453125 C-15 79 -15 79 -17 80 C-16.59456126 75.05364739 -15.94899927 70.51871717 -14.5625 65.75 C-13.00971532 60.40236104 -12.16915268 55.06824368 -11.4296875 49.5546875 C-11 47 -11 47 -10 46 C-9.54898277 43.54378454 -9.14031302 41.09098185 -8.75 38.625 C-7.51090189 31.16564538 -5.76396621 23.9320983 -3.77758789 16.63989258 C-2.27837581 11.12515958 -1.01479382 5.62749298 0 0 Z " fill="#79726D" transform="translate(33,366)"/>
<path d="M0 0 C0.66058411 -0.00671722 1.32116821 -0.01343445 2.00177002 -0.02035522 C4.18721027 -0.03936139 6.37234354 -0.04326142 8.55786133 -0.04541016 C10.08140691 -0.05183899 11.60495126 -0.05856742 13.12849426 -0.06558228 C16.32543801 -0.07756349 19.52227367 -0.08126251 22.71923828 -0.08007812 C26.80022418 -0.0798755 30.88050921 -0.10711397 34.96132946 -0.14162254 C38.11079537 -0.16395576 41.26009477 -0.16791363 44.40963173 -0.16685867 C45.913022 -0.16920743 47.41641737 -0.17798989 48.91972923 -0.19352341 C63.64616927 -0.33137314 63.64616927 -0.33137314 70.45239258 4.29052734 C72.3481125 6.20297739 73.8603877 8.10152063 75.45239258 10.29052734 C75.12239258 10.95052734 74.79239258 11.61052734 74.45239258 12.29052734 C73.87489258 11.52740234 73.29739258 10.76427734 72.70239258 9.97802734 C68.84524726 5.37088155 66.39483147 4.07063435 60.45239258 3.29052734 C58.08502008 3.17967736 55.71523612 3.11514811 53.34545898 3.08520508 C52.66183289 3.07530548 51.97820679 3.06540588 51.27386475 3.0552063 C49.03392903 3.02383971 46.79397216 2.99893316 44.55395508 2.97412109 C42.99310787 2.95353005 41.43226597 2.93253304 39.87142944 2.91114807 C35.77801837 2.8561493 31.68455883 2.80664285 27.59106445 2.75830078 C23.40807826 2.70792294 19.22516179 2.65232215 15.04223633 2.59716797 C6.84568083 2.48985817 -1.35093328 2.38835371 -9.54760742 2.29052734 C-5.94473645 -0.11138664 -4.28602537 0.02734335 0 0 Z " fill="#98948E" transform="translate(34.547607421875,7.70947265625)"/>
<path d="M0 0 C-0.99 0.66 -1.98 1.32 -3 2 C30.99 2.33 64.98 2.66 100 3 C100 3.33 100 3.66 100 4 C60.4 4 20.8 4 -20 4 C-16.76538003 1.84358669 -14.32927039 1.18899027 -10.5625 0.3125 C-9.42941406 0.04050781 -8.29632813 -0.23148437 -7.12890625 -0.51171875 C-4.25083111 -0.96085657 -2.68974913 -0.98469931 0 0 Z " fill="#CDC5BB" transform="translate(40,451)"/>
<path d="M0 0 C1.26646604 3.79939813 0.58106829 5.71757336 -0.32348633 9.61108398 C-0.47618484 10.27809326 -0.62888336 10.94510254 -0.78620911 11.63232422 C-1.29357285 13.83882732 -1.81253346 16.04241857 -2.33203125 18.24609375 C-2.68794935 19.77909156 -3.04330357 21.31222039 -3.39811707 22.84547424 C-4.14391349 26.06037374 -4.89521373 29.27392102 -5.65063477 32.48657227 C-6.61794449 36.60147392 -7.57365411 40.71896012 -8.5255022 44.83746243 C-9.25850624 48.00481894 -9.99662555 51.17096553 -10.73639488 54.33674812 C-11.09056437 55.85426889 -11.44338927 57.37210412 -11.79483986 58.89025688 C-12.28764304 61.0145609 -12.78705739 63.13720236 -13.28833008 65.25952148 C-13.57114334 66.46736801 -13.8539566 67.67521454 -14.14533997 68.91966248 C-14.86840032 71.52569278 -15.67512643 73.65783179 -17 76 C-16.88482579 73.64499052 -16.75812022 71.29150927 -16.625 68.9375 C-16.55539063 67.62652344 -16.48578125 66.31554687 -16.4140625 64.96484375 C-16.00491035 61.04701895 -15.18667827 57.74974189 -14 54 C-11.69956157 46.7136874 -9.90704732 39.42278056 -8.375 31.9375 C-8.1584375 30.91333984 -7.941875 29.88917969 -7.71875 28.83398438 C-6.76903756 24.24663879 -5.91840929 19.72842137 -5.4765625 15.0625 C-5.15069548 11.73903096 -4.48860111 9.0889574 -3 6.0625 C-2.649375 5.33160156 -2.29875 4.60070312 -1.9375 3.84765625 C-1.628125 3.23792969 -1.31875 2.62820312 -1 2 C-0.67 1.34 -0.34 0.68 0 0 Z " fill="#8A8783" transform="translate(101,76)"/>
<path d="M0 0 C0.66 0.33 1.32 0.66 2 1 C-0.14578082 4.25629282 -2.29648232 7.50927815 -4.45141602 10.75952148 C-5.53586424 12.39727422 -6.61661252 14.03747499 -7.69726562 15.67773438 C-11.46550982 21.35614844 -15.30750573 26.84063592 -19.66772461 32.08227539 C-21.29768045 34.18679953 -21.29768045 34.18679953 -22 38 C-17.05 35.525 -17.05 35.525 -12 33 C-12 33.66 -12 34.32 -12 35 C-14.38535464 36.75638053 -16.76675516 38.39346452 -19.25 40 C-19.93191406 40.45117188 -20.61382812 40.90234375 -21.31640625 41.3671875 C-24.47719635 43.4416478 -27.59160091 45.35313977 -31 47 C-29.72368257 43.55896663 -28.24732513 40.62782536 -26.19921875 37.5859375 C-25.64008789 36.7508667 -25.08095703 35.9157959 -24.50488281 35.05541992 C-23.90514648 34.17088135 -23.30541016 33.28634277 -22.6875 32.375 C-22.07100586 31.46016846 -21.45451172 30.54533691 -20.81933594 29.6027832 C-19.53129558 27.69385228 -18.24105869 25.78640179 -16.94873047 23.88037109 C-15.03976488 21.0587755 -13.14555512 18.22775647 -11.25390625 15.39453125 C-10.0864873 13.65848432 -8.9185407 11.92279207 -7.75 10.1875 C-7.20174561 9.36362793 -6.65349121 8.53975586 -6.08862305 7.69091797 C-5.57984619 6.94084473 -5.07106934 6.19077148 -4.546875 5.41796875 C-4.10182617 4.75563232 -3.65677734 4.0932959 -3.19824219 3.41088867 C-2.80282227 2.94529541 -2.40740234 2.47970215 -2 2 C-1.34 2 -0.68 2 0 2 C0 1.34 0 0.68 0 0 Z " fill="#857F7B" transform="translate(47,406)"/>
<path d="M0 0 C-9.99493026 4.01272058 -19.99549147 8.01122633 -30 12 C-30.83358032 12.33239685 -31.66716064 12.6647937 -32.52600098 13.00726318 C-37.74383335 15.08714744 -42.96349045 17.1623651 -48.1852417 19.23239136 C-49.89636994 19.9113087 -51.60702273 20.59142558 -53.31719971 21.2727356 C-55.72581155 22.23196311 -58.13610659 23.18683283 -60.546875 24.140625 C-61.27262726 24.43067917 -61.99837952 24.72073334 -62.74612427 25.01957703 C-67.77169165 27 -67.77169165 27 -70 27 C-70 26.34 -70 25.68 -70 25 C-68.9378125 24.61328125 -67.875625 24.2265625 -66.78125 23.828125 C-58.18343169 20.78856398 -58.18343169 20.78856398 -49.9375 16.9375 C-45.71131399 14.67916113 -41.17644377 13.32679301 -36.63525391 11.85522461 C-30.25533324 9.78290301 -24.11289034 7.30860358 -17.93359375 4.7109375 C-16.88300781 4.27007812 -15.83242188 3.82921875 -14.75 3.375 C-13.79609375 2.97023438 -12.8421875 2.56546875 -11.859375 2.1484375 C-3.55762082 -1.18587361 -3.55762082 -1.18587361 0 0 Z " fill="#807A75" transform="translate(307,341)"/>
<path d="M0 0 C0.66 0.33 1.32 0.66 2 1 C-2.99590976 8.33612576 -7.99595305 15.6694222 -13 23 C-13.53753906 23.78761719 -14.07507813 24.57523437 -14.62890625 25.38671875 C-20.97268898 34.67401667 -27.42635161 43.87389378 -34 53 C-34.33 52.34 -34.66 51.68 -35 51 C-34.50628906 50.31292969 -34.01257812 49.62585938 -33.50390625 48.91796875 C-32.86324219 48.01691406 -32.22257812 47.11585938 -31.5625 46.1875 C-30.92441406 45.29417969 -30.28632812 44.40085937 -29.62890625 43.48046875 C-27.86709732 41.02865666 -27.86709732 41.02865666 -27 38 C-26.34 38 -25.68 38 -25 38 C-24.7834375 37.33742188 -24.566875 36.67484375 -24.34375 35.9921875 C-22.54547576 31.98789079 -20.0744697 28.66534802 -17.5 25.125 C-12.87921787 18.68557138 -8.39225606 12.17967521 -4.03515625 5.55908203 C-1.08799922 1.08799922 -1.08799922 1.08799922 0 0 Z " fill="#7F7A76" transform="translate(84,352)"/>
<path d="M0 0 C2.36149048 7.79656768 -0.39373646 16.48520583 -2.28515625 24.1640625 C-2.50570175 25.08214691 -2.72624725 26.00023132 -2.95347595 26.94613647 C-3.65029019 29.84062883 -4.35622125 32.7328042 -5.0625 35.625 C-5.54032154 37.60271779 -6.01754065 39.58058123 -6.49414062 41.55859375 C-7.6558101 46.37410593 -8.82565381 51.18756428 -10 56 C-10.33 56 -10.66 56 -11 56 C-11.33648119 49.54319884 -10.06553673 43.66480233 -8.6875 37.375 C-8.45820801 36.30411133 -8.22891602 35.23322266 -7.99267578 34.12988281 C-7.33745842 31.08453239 -6.6717657 28.04173815 -6 25 C-5.84063965 24.27780273 -5.6812793 23.55560547 -5.51708984 22.81152344 C-3.81819899 15.17356812 -1.92656383 7.58328316 0 0 Z " fill="#7E7A78" transform="translate(58,257)"/>
<path d="M0 0 C-3.41199332 2.27466221 -6.70731538 3.09412495 -10.625 4.0625 C-15.17515892 4.86023482 -15.17515892 4.86023482 -19 7 C-22.05911104 7.44887079 -25.11734038 7.81743331 -28.18945312 8.16210938 C-32.36472881 8.6690777 -36.03623891 9.63263544 -40 11 C-42.11711125 11.4172409 -44.24280813 11.79332571 -46.375 12.125 C-47.43460938 12.29257812 -48.49421875 12.46015625 -49.5859375 12.6328125 C-50.38257813 12.75398438 -51.17921875 12.87515625 -52 13 C-52 12.34 -52 11.68 -52 11 C-51.18023682 10.80889648 -50.36047363 10.61779297 -49.51586914 10.42089844 C-47.07491626 9.85179362 -44.63400156 9.28252497 -42.19311523 8.71313477 C-39.43371683 8.06951247 -36.67408954 7.42688359 -33.91430664 6.78491211 C-28.07084663 5.42458121 -22.22789201 4.06401989 -16.3984375 2.64453125 C-15.62491943 2.45729492 -14.85140137 2.27005859 -14.05444336 2.07714844 C-12.08604799 1.59861338 -10.11913143 1.11400662 -8.15234375 0.62890625 C-5.32515015 0.06486886 -2.86955961 -0.13561246 0 0 Z " fill="#6C6664" transform="translate(280,393)"/>
<path d="M0 0 C0 0.33 0 0.66 0 1 C-1.18078125 1.06058594 -2.3615625 1.12117188 -3.578125 1.18359375 C-5.1354277 1.26802582 -6.69271879 1.35267249 -8.25 1.4375 C-9.02730469 1.47681641 -9.80460937 1.51613281 -10.60546875 1.55664062 C-11.73662109 1.61948242 -11.73662109 1.61948242 -12.890625 1.68359375 C-13.92751465 1.73858032 -13.92751465 1.73858032 -14.98535156 1.79467773 C-16.99560395 1.94359694 -16.99560395 1.94359694 -18.86804199 2.51147461 C-21.05871136 3.01345336 -22.88415078 3.08557798 -25.12597656 3.02172852 C-26.32676849 2.99158409 -26.32676849 2.99158409 -27.55181885 2.96083069 C-28.40612488 2.93379562 -29.26043091 2.90676056 -30.140625 2.87890625 C-31.02280701 2.85529526 -31.90498901 2.83168427 -32.81390381 2.80735779 C-35.62610708 2.73090504 -38.43802214 2.64680169 -41.25 2.5625 C-43.15884016 2.5092609 -45.0676943 2.45652063 -46.9765625 2.40429688 C-51.6512235 2.27531479 -56.32564068 2.13947175 -61 2 C-61 1.67 -61 1.34 -61 1 C-40.66798583 -0.20358646 -20.35856211 -0.10343989 0 0 Z " fill="#B0ACA5" transform="translate(263,454)"/>
<path d="M0 0 C-8.28081326 4.0441181 -17.25683684 5.61299336 -26.3125 7 C-30.5137374 7.65523886 -34.07138197 8.70465956 -37.9765625 10.3359375 C-41.85935585 11.61021331 -45.94151944 11.7588198 -50 12 C-47.37548383 9.37548383 -45.5122172 9.4167132 -41.875 8.875 C-40.77929688 8.70742188 -39.68359375 8.53984375 -38.5546875 8.3671875 C-37.71164063 8.24601562 -36.86859375 8.12484375 -36 8 C-36 7.34 -36 6.68 -36 6 C-35.17274414 5.823479 -34.34548828 5.64695801 -33.49316406 5.46508789 C-30.41426938 4.80776419 -27.33550845 4.14981852 -24.25683594 3.49145508 C-22.92615982 3.2070271 -21.59543118 2.9228447 -20.26464844 2.63891602 C-18.34816816 2.22998095 -16.4318941 1.82007979 -14.515625 1.41015625 C-12.78747559 1.04096069 -12.78747559 1.04096069 -11.02441406 0.66430664 C-9.25213186 0.27502832 -7.48451766 -0.13997533 -5.73339844 -0.61547852 C-3.56138644 -1.09729808 -2.09374754 -0.67299028 0 0 Z " fill="#7A7470" transform="translate(89,438)"/>
<path d="M0 0 C-6.3749956 2.30818806 -12.68311749 3.82758776 -19.32421875 5.17578125 C-22.95478704 5.98986192 -26.4482104 7.02079605 -30 8.125 C-37.02706389 10.21240447 -43.68245205 10.77758213 -51 11 C-48.2502072 9.52489624 -45.69528288 8.5585711 -42.66210938 7.83911133 C-41.81442993 7.63582718 -40.96675049 7.43254303 -40.09338379 7.22309875 C-39.18600464 7.01154648 -38.27862549 6.7999942 -37.34375 6.58203125 C-36.40446655 6.36052902 -35.46518311 6.13902679 -34.49743652 5.91081238 C-32.51437184 5.44514225 -30.53067048 4.98217627 -28.54638672 4.52172852 C-25.50885276 3.81456101 -22.47516811 3.09229621 -19.44140625 2.36914062 C-17.51323739 1.91834356 -15.5848586 1.46844329 -13.65625 1.01953125 C-12.74887085 0.80190628 -11.8414917 0.58428131 -10.90661621 0.36006165 C-10.05893677 0.16623398 -9.21125732 -0.02759369 -8.33789062 -0.22729492 C-7.22347595 -0.48805061 -7.22347595 -0.48805061 -6.08654785 -0.7540741 C-3.79144338 -1.02458102 -2.18857545 -0.69408036 0 0 Z " fill="#7D7774" transform="translate(193,414)"/>
<path d="M0 0 C0.12375 0.5775 0.2475 1.155 0.375 1.75 C0.89185744 4.04322679 0.89185744 4.04322679 2.25 5.9375 C2.4975 6.618125 2.745 7.29875 3 8 C1.515 10.475 1.515 10.475 0 13 C3.63 10.36 7.26 7.72 11 5 C11.66 5.33 12.32 5.66 13 6 C12.67 6.33 12.34 6.66 12 7 C13.98 7 15.96 7 18 7 C15.77174356 9.22825644 14.34238372 9.69239369 11.375 10.625 C10.55773438 10.88539063 9.74046875 11.14578125 8.8984375 11.4140625 C8.27195312 11.60742188 7.64546875 11.80078125 7 12 C7 12.66 7 13.32 7 14 C2.545 14.495 2.545 14.495 -2 15 C-2.3690205 4.44191344 -2.3690205 4.44191344 0 0 Z " fill="#A89F99" transform="translate(16,440)"/>
<path d="M0 0 C0.66 0.33 1.32 0.66 2 1 C-1.75640489 4.07406168 -5.63717865 6.92424936 -9.625 9.6875 C-10.19734375 10.09033203 -10.7696875 10.49316406 -11.359375 10.90820312 C-13.897787 12.67033332 -16.05064491 14.01688164 -19 15 C-19.268125 15.598125 -19.53625 16.19625 -19.8125 16.8125 C-22.0698245 20.97072935 -26.07820119 22.65859303 -30.375 24.25 C-31.24125 24.4975 -32.1075 24.745 -33 25 C-31.72378278 21.17134835 -30.3789133 20.69727539 -27 18.5625 C-21.55086833 15.04121997 -16.22664778 11.38239523 -10.9375 7.625 C-9.4883778 6.59621816 -8.03916476 5.56756424 -6.58984375 4.5390625 C-5.96972412 4.09771973 -5.34960449 3.65637695 -4.71069336 3.20166016 C-3.15710396 2.11035617 -1.57970931 1.05313954 0 0 Z " fill="#75706C" transform="translate(89,401)"/>
<path d="M0 0 C1.37708903 4.1312671 -0.19974923 6.77059728 -1.75 10.625 C-2.31085151 12.07124434 -2.87075434 13.51785694 -3.4296875 14.96484375 C-3.70135742 15.66077637 -3.97302734 16.35670898 -4.25292969 17.07373047 C-7.01548765 23.75419679 -7.01548765 23.75419679 -7.9375 30.8125 C-8 33 -8 33 -9.875 35.3125 C-12 37 -12 37 -14 37 C-11.75577043 28.68350241 -8.60997072 20.82296814 -5.3125 12.875 C-4.79578987 11.6199703 -4.27951093 10.36476298 -3.76367188 9.109375 C-2.51332553 6.07115023 -1.25868796 3.0347762 0 0 Z " fill="#7A7774" transform="translate(119,184)"/>
<path d="M0 0 C-2.68712814 2.68712814 -5.83409032 3.70256325 -9.30859375 5.07421875 C-10.03111832 5.36230911 -10.75364288 5.65039948 -11.49806213 5.94721985 C-13.02602613 6.55421811 -14.55510671 7.15841203 -16.08520508 7.76000977 C-18.42903952 8.6841641 -20.76626423 9.62379494 -23.10351562 10.56445312 C-24.58816328 11.15199871 -26.07317762 11.73861873 -27.55859375 12.32421875 C-28.2586705 12.60746506 -28.95874725 12.89071136 -29.68003845 13.18254089 C-34.65657057 15.11447648 -34.65657057 15.11447648 -38 14 C-33.44238366 11.63980583 -28.99207352 9.59861477 -24.16748047 7.82299805 C-21.97853668 6.99185032 -19.82792979 6.09774986 -17.67578125 5.17578125 C-16.95712891 4.86962891 -16.23847656 4.56347656 -15.49804688 4.24804688 C-14.02686123 3.61829002 -12.55813653 2.98275625 -11.09179688 2.34179688 C-7.25759731 0.72030039 -4.2522161 -0.44451174 0 0 Z " fill="#8F8C86" transform="translate(438,288)"/>
<path d="M0 0 C-3.3586772 2.83985287 -7.00242716 4.36895468 -11.06640625 5.91796875 C-11.74170883 6.18007645 -12.41701141 6.44218414 -13.11277771 6.7122345 C-14.53453487 7.26230878 -15.95750212 7.80926439 -17.3815918 8.35327148 C-19.56183807 9.1872468 -21.73711451 10.0332962 -23.91210938 10.88085938 C-25.2965956 11.41478756 -26.68135229 11.94801504 -28.06640625 12.48046875 C-29.04148888 12.86008003 -29.04148888 12.86008003 -30.03627014 13.24736023 C-32.85421884 14.31685266 -34.95602293 15 -38 15 C-38 14.34 -38 13.68 -38 13 C-37.05640625 12.74476563 -37.05640625 12.74476563 -36.09375 12.484375 C-31.18830191 11.09548307 -26.77987709 9.50369747 -22.28515625 7.11328125 C-18.22806318 5.13674873 -13.98064806 3.63311987 -9.7578125 2.05078125 C-6.07776543 0.64861034 -3.98713683 -0.10492465 0 0 Z " fill="#8F8883" transform="translate(208,379)"/>
<path d="M0 0 C0.33 0.99 0.66 1.98 1 3 C0.360625 3.103125 -0.27875 3.20625 -0.9375 3.3125 C-1.618125 3.539375 -2.29875 3.76625 -3 4 C-3.33 4.99 -3.66 5.98 -4 7 C-6.22265625 8.359375 -6.22265625 8.359375 -9.0625 9.75 C-13.74594561 12.18587768 -17.42006565 14.88448284 -21.28515625 18.44921875 C-23.38112074 20.34465816 -25.4258658 21.82325294 -28 23 C-28.99 22.67 -29.98 22.34 -31 22 C-22.95190112 16.01889919 -14.88690403 10.13916833 -6.48828125 4.65625 C-4.26191034 3.17433278 -2.12035365 1.6287494 0 0 Z " fill="#928A84" transform="translate(157,354)"/>
<path d="M0 0 C0 0.66 0 1.32 0 2 C-0.78375 2.433125 -1.5675 2.86625 -2.375 3.3125 C-5.41686215 5.26798281 -5.98981901 6.60211849 -7 10 C-7.66 10 -8.32 10 -9 10 C-9.33 24.52 -9.66 39.04 -10 54 C-10.33 54 -10.66 54 -11 54 C-11.04955876 48.12843039 -11.08579487 42.25698345 -11.10986328 36.38525391 C-11.11990052 34.38913857 -11.1335332 32.39303786 -11.15087891 30.39697266 C-11.17522735 27.52242413 -11.18650605 24.64807059 -11.1953125 21.7734375 C-11.20563507 20.88570648 -11.21595764 19.99797546 -11.22659302 19.08334351 C-11.22758265 13.57760565 -11.14159947 8.45475788 -7.34375 4.1015625 C-6.7353125 3.61429688 -6.126875 3.12703125 -5.5 2.625 C-4.8915625 2.12226563 -4.283125 1.61953125 -3.65625 1.1015625 C-2 0 -2 0 0 0 Z " fill="#B2AEA9" transform="translate(25,10)"/>
<path d="M0 0 C0.33 0 0.66 0 1 0 C0.44621421 6.10817463 -1.45807321 11.17640394 -3.8125 16.8125 C-4.15603516 17.65103516 -4.49957031 18.48957031 -4.85351562 19.35351562 C-5.54486683 21.04103518 -6.23902019 22.72740957 -6.93603516 24.41259766 C-8.65610295 28.59554362 -10.32812766 32.79760501 -12 37 C-12.66 37 -13.32 37 -14 37 C-11.75577043 28.68350241 -8.60997072 20.82296814 -5.3125 12.875 C-4.79578987 11.6199703 -4.27951093 10.36476298 -3.76367188 9.109375 C-2.51332553 6.07115023 -1.25868796 3.0347762 0 0 Z " fill="#78736E" transform="translate(91,255)"/>
<path d="M0 0 C0.66 0.33 1.32 0.66 2 1 C1.23816406 1.56847656 0.47632813 2.13695312 -0.30859375 2.72265625 C-1.34113281 3.49480469 -2.37367188 4.26695312 -3.4375 5.0625 C-3.98374023 5.47008545 -4.52998047 5.8776709 -5.09277344 6.29760742 C-8.36191102 8.74467837 -11.56961052 11.25036487 -14.75 13.8125 C-18.05238343 16.40424396 -21.33472167 18.32980101 -25.13671875 20.08984375 C-27.95289862 21.46546201 -30.43525048 23.20467534 -33 25 C-31.49669331 20.60032241 -28.12173182 18.79600808 -24.375 16.4375 C-23.02651677 15.56507901 -21.6788915 14.69133075 -20.33203125 13.81640625 C-19.62771973 13.36152832 -18.9234082 12.90665039 -18.19775391 12.43798828 C-14.44229581 9.98079564 -10.75397724 7.42689082 -7.0625 4.875 C-6.35851074 4.3895874 -5.65452148 3.9041748 -4.92919922 3.40405273 C-3.285425 2.27039412 -1.64260052 1.13535857 0 0 Z " fill="#7C7874" transform="translate(274,273)"/>
<path d="M0 0 C1.03637775 3.55734685 0.86640416 4.97248926 -0.8125 8.3125 C-2.14770697 10.99737467 -3.12468555 13.44052125 -3.9453125 16.33984375 C-5.04198541 20.14570493 -6.46675057 23.62721752 -8.0625 27.25 C-10.18270823 32.06685203 -10.18270823 32.06685203 -12 37 C-12.66 37 -13.32 37 -14 37 C-11.75577043 28.68350241 -8.60997072 20.82296814 -5.3125 12.875 C-4.79578987 11.6199703 -4.27951093 10.36476298 -3.76367188 9.109375 C-2.51332553 6.07115023 -1.25868796 3.0347762 0 0 Z " fill="#716C6A" transform="translate(64,323)"/>
<path d="M0 0 C-2.137273 2.137273 -3.71451885 2.87833315 -6.47265625 4.05859375 C-7.37306641 4.44466797 -8.27347656 4.83074219 -9.20117188 5.22851562 C-10.14541016 5.62748047 -11.08964844 6.02644531 -12.0625 6.4375 C-13.43825195 7.03014648 -13.43825195 7.03014648 -14.84179688 7.63476562 C-19.16658998 9.47686389 -23.51068109 11.25374038 -27.93359375 12.84765625 C-28.62380615 13.09652588 -29.31401855 13.34539551 -30.02514648 13.60180664 C-32.32660999 14.06585498 -33.78960584 13.72422787 -36 13 C-32.69515574 11.22046848 -29.44302468 9.76234849 -25.875 8.625 C-19.37041866 6.53779139 -12.87190361 4.02945932 -6.81640625 0.85546875 C-4.46968088 -0.2497632 -2.56015404 -0.14223078 0 0 Z " fill="#847D78" transform="translate(77,431)"/>
<path d="M0 0 C1.20071488 3.60214463 0.71846792 4.41890313 -0.625 7.875 C-0.99625 8.83921875 -1.3675 9.8034375 -1.75 10.796875 C-2.1625 11.85390625 -2.575 12.9109375 -3 14 C-3.433125 15.18078125 -3.86625 16.3615625 -4.3125 17.578125 C-4.745625 18.74859375 -5.17875 19.9190625 -5.625 21.125 C-6.02976562 22.22070312 -6.43453125 23.31640625 -6.8515625 24.4453125 C-8 27 -8 27 -10 28 C-9.51194957 21.85056463 -8.90101145 15.55407321 -6 10 C-5.01 9.67 -4.02 9.34 -3 9 C-1.97718482 6.90280128 -1.97718482 6.90280128 -1.3125 4.4375 C-1.06113281 3.61121094 -0.80976563 2.78492188 -0.55078125 1.93359375 C-0.36902344 1.29550781 -0.18726563 0.65742188 0 0 Z " fill="#5F564F" transform="translate(26,418)"/>
<path d="M0 0 C0.33 0 0.66 0 1 0 C0.34094135 8.38211215 -1.60398419 16.40956379 -3.5625 24.5625 C-3.89567078 25.96668106 -4.22835694 27.3709772 -4.56054688 28.77539062 C-5.3681166 32.18493825 -6.18222821 35.59288303 -7 39 C-7.33 39 -7.66 39 -8 39 C-8.25024136 31.6178799 -8.25024136 31.6178799 -7.05078125 28.65625 C-5.79684587 25.48645053 -5.45414592 22.57057477 -5.0625 19.1875 C-4.33216297 13.65200904 -3.1792131 9.11641335 -1 4 C-0.64573053 2.67207604 -0.30711695 1.33961489 0 0 Z " fill="#79726E" transform="translate(43,326)"/>
<path d="M0 0 C0.66 0 1.32 0 2 0 C1.34 3.3 0.68 6.6 0 10 C-0.66 10 -1.32 10 -2 10 C-2.268125 11.03125 -2.53625 12.0625 -2.8125 13.125 C-3.81830985 16.65950082 -5.3281338 19.72314225 -7 23 C-7.53395063 24.43267942 -8.05444165 25.87043539 -8.5625 27.3125 C-10 31 -10 31 -12 32 C-11.33553963 27.93720499 -10.06349163 24.406859 -8.49609375 20.60546875 C-8.00302734 19.40341797 -7.50996094 18.20136719 -7.00195312 16.96289062 C-6.48056595 15.70438681 -5.95908034 14.44592377 -5.4375 13.1875 C-4.91169842 11.90967423 -4.38630353 10.63168104 -3.86132812 9.35351562 C-2.57820948 6.234007 -1.29096615 3.11626734 0 0 Z " fill="#8A827F" transform="translate(39,386)"/>
<path d="M0 0 C-3.75129781 1.5540382 -7.50500243 3.10209623 -11.26098633 4.64477539 C-12.53704418 5.1698495 -13.81244561 5.69652193 -15.0871582 6.22485352 C-16.92483813 6.98618831 -18.76512972 7.74120938 -20.60546875 8.49609375 C-21.71043701 8.95169678 -22.81540527 9.4072998 -23.95385742 9.87670898 C-26.65337478 10.872179 -29.16744158 11.53674187 -32 12 C-32 11.34 -32 10.68 -32 10 C-27.01051919 7.81791635 -21.98245499 5.82503771 -16.875 3.9375 C-11.51576074 1.97166819 -11.51576074 1.97166819 -6.2578125 -0.24609375 C-3.65749233 -1.11436675 -2.56856615 -0.75599642 0 0 Z " fill="#948D8A" transform="translate(170,395)"/>
<path d="M0 0 C-2.54054307 2.54054307 -4.03925966 2.49603714 -7.5625 3 C-16.36752365 3.72024055 -16.36752365 3.72024055 -24 7 C-26.67058851 7.14115161 -29.32432238 7.04247107 -32 7 C-32 6.67 -32 6.34 -32 6 C-30.9275 5.71125 -29.855 5.4225 -28.75 5.125 C-25.22797881 4.18722984 -25.22797881 4.18722984 -23.015625 3 C-15.82836459 -0.56577261 -7.82701924 -0.23838637 0 0 Z " fill="#9B9791" transform="translate(304,389)"/>
<path d="M0 0 C-2.96344108 2.41740686 -5.79298068 3.87892205 -9.3515625 5.26171875 C-10.36734375 5.65810547 -11.383125 6.05449219 -12.4296875 6.46289062 C-14.01136719 7.06907227 -14.01136719 7.06907227 -15.625 7.6875 C-16.6871875 8.10322266 -17.749375 8.51894531 -18.84375 8.94726562 C-26.72371459 12 -26.72371459 12 -29 12 C-29 11.34 -29 10.68 -29 10 C-27.49759766 9.40251953 -27.49759766 9.40251953 -25.96484375 8.79296875 C-24.62237704 8.25785964 -23.27993019 7.72270072 -21.9375 7.1875 C-21.28072266 6.92646484 -20.62394531 6.66542969 -19.94726562 6.39648438 C-3.67424661 -0.0966907 -3.67424661 -0.0966907 0 0 Z " fill="#918C85" transform="translate(367,316)"/>
<path d="M0 0 C1.01492872 3.5149608 0.83453136 5.29007469 -0.4375 8.75 C-0.72496094 9.54921875 -1.01242188 10.3484375 -1.30859375 11.171875 C-1.53675781 11.77515625 -1.76492187 12.3784375 -2 13 C-2.66 13 -3.32 13 -4 13 C-4.10957031 13.58007812 -4.21914062 14.16015625 -4.33203125 14.7578125 C-5.30972673 19.57475122 -6.43992455 23.73320759 -9 28 C-9.66 28.33 -10.32 28.66 -11 29 C-8.35842154 18.92898212 -4.1285413 9.53101572 0 0 Z " fill="#6C6A67" transform="translate(76,293)"/>
<path d="M0 0 C1.22732521 4.06137022 0.49087295 6.05223855 -1.125 10 C-1.58648437 11.14210938 -2.04796875 12.28421875 -2.5234375 13.4609375 C-3.01070312 14.62882812 -3.49796875 15.79671875 -4 17 C-4.46664062 18.12664063 -4.93328125 19.25328125 -5.4140625 20.4140625 C-6.26459891 22.45833422 -7.12076225 24.5002805 -7.984375 26.5390625 C-8.72459413 28.33267039 -9.38640782 30.15922346 -10 32 C-10.66 32 -11.32 32 -12 32 C-9.94400621 24.55838512 -7.29150906 17.49231351 -4.3125 10.375 C-3.68891602 8.86873047 -3.68891602 8.86873047 -3.05273438 7.33203125 C-2.03945904 4.88619424 -1.02183204 2.4422715 0 0 Z " fill="#7C7772" transform="translate(179,33)"/>
<path d="M0 0 C-4.10078931 1.6750644 -8.20615636 3.33860345 -12.3125 5 C-13.47974609 5.47695313 -14.64699219 5.95390625 -15.84960938 6.4453125 C-16.96787109 6.89648438 -18.08613281 7.34765625 -19.23828125 7.8125 C-20.7857605 8.44091797 -20.7857605 8.44091797 -22.36450195 9.08203125 C-25 10 -25 10 -28 10 C-28 9.01 -28 8.02 -28 7 C-27.05640625 6.85304688 -27.05640625 6.85304688 -26.09375 6.703125 C-20.83641528 5.78467496 -16.5698765 4.49032292 -11.8828125 1.95703125 C-7.90307183 -0.06586598 -4.362557 -1.45418567 0 0 Z " fill="#8C847E" transform="translate(236,369)"/>
<path d="M0 0 C0.33 0 0.66 0 1 0 C0.68050952 6.1768159 -0.34336895 9.64559329 -5 14 C-7.27218431 15.5618574 -9.63345119 16.76516072 -12.125 17.9375 C-12.74503906 18.25267578 -13.36507813 18.56785156 -14.00390625 18.89257812 C-18.60245331 21.13251556 -18.60245331 21.13251556 -22 20 C-20.05780718 19.02890359 -18.11544495 18.05818268 -16.171875 17.08984375 C-14.31531568 16.15822495 -12.4690365 15.20616707 -10.625 14.25 C-8 13 -8 13 -6 13 C-4.53347983 10.11980724 -3.17952126 7.20691485 -1.875 4.25 C-1.34519531 3.05117188 -1.34519531 3.05117188 -0.8046875 1.828125 C-0.53914063 1.22484375 -0.27359375 0.6215625 0 0 Z " fill="#87847F" transform="translate(460,267)"/>
<path d="M0 0 C2.63755565 2.63755565 2.32885187 3.87526476 2.375 7.5625 C2.28026881 16.01252173 0.17588631 23.88899521 -2 32 C-2.33 32 -2.66 32 -3 32 C-2.94013916 31.41299316 -2.88027832 30.82598633 -2.81860352 30.22119141 C-2.15017264 23.60935533 -1.5339764 16.99367883 -0.9375 10.375 C-0.84662109 9.37082031 -0.75574219 8.36664063 -0.66210938 7.33203125 C-0.44098801 4.88805832 -0.22029138 2.44404786 0 0 Z " fill="#97938E" transform="translate(110,20)"/>
<path d="M0 0 C1.69042063 5.01939105 -0.3858588 8.75054428 -2.1875 13.5 C-2.49236328 14.35464844 -2.79722656 15.20929688 -3.11132812 16.08984375 C-4.77361943 20.55746944 -6.16594622 23.93955796 -10 27 C-7.58650007 17.64481454 -3.75743534 8.873724 0 0 Z " fill="#7F7A77" transform="translate(104,222)"/>
<path d="M0 0 C-1.62185843 0.46338812 -3.24374104 0.92669169 -4.86572266 1.38964844 C-6.31110214 1.80299192 -7.75607831 2.21774787 -9.20068359 2.63378906 C-11.5281578 3.30276965 -13.85767047 3.96427341 -16.1875 4.625 C-16.98091797 4.85445313 -17.77433594 5.08390625 -18.59179688 5.3203125 C-19.35943359 5.536875 -20.12707031 5.7534375 -20.91796875 5.9765625 C-21.95087036 6.27167725 -21.95087036 6.27167725 -23.00463867 6.57275391 C-25 7 -25 7 -29 7 C-29 6.34 -29 5.68 -29 5 C-24.73221412 3.96612764 -20.46036802 2.95014502 -16.1875 1.9375 C-14.36508789 1.49567383 -14.36508789 1.49567383 -12.50585938 1.04492188 C-11.34248047 0.77099609 -10.17910156 0.49707031 -8.98046875 0.21484375 C-7.90692139 -0.04176025 -6.83337402 -0.29836426 -5.72729492 -0.56274414 C-3 -1 -3 -1 0 0 Z " fill="#76746F" transform="translate(379,371)"/>
<path d="M0 0 C0.33 0.99 0.66 1.98 1 3 C0.46375 3.30550781 -0.0725 3.61101562 -0.625 3.92578125 C-9.05025233 8.84513088 -17.00275175 14.42375494 -25 20 C-25.66 19.67 -26.32 19.34 -27 19 C-18.05892757 12.57904994 -9.07012005 6.23759086 0 0 Z " fill="#6D6966" transform="translate(239,297)"/>
<path d="M0 0 C1.31112918 3.68828032 0.68722513 6.32257294 -0.21484375 10.078125 C-0.48876953 11.23828125 -0.76269531 12.3984375 -1.04492188 13.59375 C-1.33947266 14.8003125 -1.63402344 16.006875 -1.9375 17.25 C-2.22818359 18.47203125 -2.51886719 19.6940625 -2.81835938 20.953125 C-3.53741594 23.970805 -4.26491695 26.98619115 -5 30 C-5.33 30 -5.66 30 -6 30 C-5.38541771 21.9295642 -4.30774665 13.98614219 -3 6 C-2.34 6 -1.68 6 -1 6 C-0.67 4.02 -0.34 2.04 0 0 Z " fill="#7C7A74" transform="translate(81,162)"/>
<path d="M0 0 C0.99 0.33 1.98 0.66 3 1 C1 3 1 3 -1.3125 3.625 C-8.11233525 7.10398548 -10.51858458 16.23502389 -13 23 C-13.66 23 -14.32 23 -15 23 C-12.24742734 13.99158039 -9.85249444 6.63331123 -2 1 C-1.34 0.67 -0.68 0.34 0 0 Z " fill="#919086" transform="translate(195,9)"/>
<path d="M0 0 C3.77662481 2.68339131 5.82138793 4.48198706 7 9 C7.43951825 12.32705097 7.75307357 15.65349711 8 19 C7.34 19 6.68 19 6 19 C6 20.98 6 22.96 6 25 C5.67 25 5.34 25 5 25 C4.93941406 24.07058594 4.87882812 23.14117187 4.81640625 22.18359375 C4.20428448 13.05853115 4.20428448 13.05853115 3 4 C2.34 4 1.68 4 1 4 C0.67 2.68 0.34 1.36 0 0 Z " fill="#A39C97" transform="translate(454,169)"/>
<path d="M0 0 C0 0.66 0 1.32 0 2 C-6.65594553 4.94397591 -12.75841435 5.64999003 -20 6 C-20 5.34 -20 4.68 -20 4 C-17.41806023 3.32749476 -14.83467929 2.66182099 -12.25 2 C-11.15558594 1.71382813 -11.15558594 1.71382813 -10.0390625 1.421875 C-6.55428354 0.53484036 -3.61876278 0 0 0 Z " fill="#75716D" transform="translate(214,408)"/>
<path d="M0 0 C0 0.99 0 1.98 0 3 C-0.99 3.66 -1.98 4.32 -3 5 C-3.45375 5.86625 -3.9075 6.7325 -4.375 7.625 C-4.91125 8.40875 -5.4475 9.1925 -6 10 C-7.66608987 10.04384447 -9.33380554 10.0396713 -11 10 C-13.7905817 11.89816542 -13.7905817 11.89816542 -16 14 C-16.66 13.67 -17.32 13.34 -18 13 C-12.186102 8.35437938 -6.25322296 4.03576801 0 0 Z " fill="#7C746F" transform="translate(54,425)"/>
<path d="M0 0 C0 3 0 3 -2.1875 5.5 C-6.85988412 9.65323032 -10.93864411 11.4549485 -17 13 C-13.75042141 9.49302905 -10.18687827 6.90631127 -6.25 4.25 C-5.64800781 3.83878906 -5.04601562 3.42757813 -4.42578125 3.00390625 C-2.95313343 1.99876568 -1.47692498 0.99884522 0 0 Z " fill="#A79D99" transform="translate(183,336)"/>
<path d="M0 0 C0.33 0.66 0.66 1.32 1 2 C-1.41477568 3.62787116 -3.83170438 5.25237281 -6.25 6.875 C-6.93191406 7.33519531 -7.61382812 7.79539062 -8.31640625 8.26953125 C-8.98027344 8.71425781 -9.64414062 9.15898437 -10.328125 9.6171875 C-11.23933105 10.22989502 -11.23933105 10.22989502 -12.16894531 10.85498047 C-14.06024063 12.03767048 -15.99058862 13.03408604 -18 14 C-17.10239104 10.67884686 -16.53498079 9.30761395 -13.5 7.5625 C-12.345 7.046875 -11.19 6.53125 -10 6 C-8.19742185 4.95611892 -6.40625931 3.89235692 -4.625 2.8125 C-3.75101563 2.28269531 -2.87703125 1.75289063 -1.9765625 1.20703125 C-1.32429688 0.80871094 -0.67203125 0.41039062 0 0 Z " fill="#655B54" transform="translate(34,439)"/>
<path d="M0 0 C-3.41199332 2.27466221 -6.70731538 3.09412495 -10.625 4.0625 C-15.17515892 4.86023482 -15.17515892 4.86023482 -19 7 C-20.66617115 7.04063832 -22.33388095 7.042721 -24 7 C-23.34 6.67 -22.68 6.34 -22 6 C-22 5.34 -22 4.68 -22 4 C-19.27238489 3.32636628 -16.543201 2.66090556 -13.8125 2 C-13.04357422 1.80921875 -12.27464844 1.6184375 -11.48242188 1.421875 C-7.57921747 0.48376579 -4.04770205 -0.25957208 0 0 Z " fill="#7F7773" transform="translate(280,393)"/>
<path d="M0 0 C0.66 0.66 1.32 1.32 2 2 C2.66 1.34 3.32 0.68 4 0 C4.34292736 4.16620257 3.66129845 6.06553065 1.0625 9.3125 C0.51722656 10.00988281 -0.02804688 10.70726562 -0.58984375 11.42578125 C-1.05519531 11.94527344 -1.52054688 12.46476562 -2 13 C-2.33 13 -2.66 13 -3 13 C-2.45144652 8.428721 -1.58255197 4.32564205 0 0 Z " fill="#CBC2BC" transform="translate(21,434)"/>
<path d="M0 0 C0.33 0.99 0.66 1.98 1 3 C-3.80239407 7.77744657 -7.07011948 10.85562749 -14 11 C-9.85989729 6.45924219 -5.17609824 3.28157862 0 0 Z " fill="#B6B2AC" transform="translate(321,241)"/>
<path d="M0 0 C0.66 0 1.32 0 2 0 C0.05119657 4.05765352 -2.3041815 7.82953716 -4.66015625 11.66015625 C-6.11979157 14.03104625 -6.11979157 14.03104625 -7 17 C-9.0625 17.6875 -9.0625 17.6875 -11 18 C-9.4785114 13.60918236 -7.14060361 9.97124031 -4.5 6.1875 C-3.89478516 5.2912793 -3.89478516 5.2912793 -3.27734375 4.37695312 C-2.23960218 2.87856389 -1.12524203 1.43384386 0 0 Z " fill="#7D7671" transform="translate(30,430)"/>
<path d="M0 0 C0.66 0.33 1.32 0.66 2 1 C0.05283819 4.00739187 -1.90951984 7.00455426 -3.875 10 C-4.43058594 10.85851562 -4.98617187 11.71703125 -5.55859375 12.6015625 C-6.09355469 13.41367187 -6.62851563 14.22578125 -7.1796875 15.0625 C-7.67194824 15.81660156 -8.16420898 16.57070313 -8.67138672 17.34765625 C-9.1098291 17.89292969 -9.54827148 18.43820312 -10 19 C-10.66 19 -11.32 19 -12 19 C-10.63912664 15.21528255 -8.90678334 12.1993308 -6.5625 8.9375 C-5.96566406 8.10089844 -5.36882812 7.26429688 -4.75390625 6.40234375 C-3.18614712 4.25496766 -1.60229341 2.12169128 0 0 Z " fill="#827F7A" transform="translate(84,352)"/>
<path d="M0 0 C1.2065625 0.0309375 1.2065625 0.0309375 2.4375 0.0625 C0.35945591 2.14054409 -0.92849395 2.74577147 -3.625 3.7890625 C-4.42164063 4.0984375 -5.21828125 4.4078125 -6.0390625 4.7265625 C-6.87179688 5.04367187 -7.70453125 5.36078125 -8.5625 5.6875 C-9.39523438 6.01234375 -10.22796875 6.3371875 -11.0859375 6.671875 C-17.29352679 9.0625 -17.29352679 9.0625 -19.5625 9.0625 C-19.5625 8.4025 -19.5625 7.7425 -19.5625 7.0625 C-18.41910156 6.64097656 -17.27570313 6.21945312 -16.09765625 5.78515625 C-14.60671741 5.23191479 -13.11583489 4.67852153 -11.625 4.125 C-10.87025391 3.84720703 -10.11550781 3.56941406 -9.33789062 3.28320312 C-0.55299233 0.01348762 -0.55299233 0.01348762 0 0 Z " fill="#7F7873" transform="translate(256.5625,358.9375)"/>
<path d="M0 0 C-3.2858246 2.75167577 -6.63627487 4.21933799 -10.625 5.75 C-11.77226562 6.19859375 -12.91953125 6.6471875 -14.1015625 7.109375 C-17 8 -17 8 -19 7 C-18.34 6.34 -17.68 5.68 -17 5 C-16.01 5 -15.02 5 -14 5 C-14 4.34 -14 3.68 -14 3 C-4.58997722 -0.44419134 -4.58997722 -0.44419134 0 0 Z " fill="#96918B" transform="translate(337,328)"/>
<path d="M0 0 C1.33863379 3.04305705 0.90255158 4.31327607 -0.109375 7.56640625 C-0.64460595 8.90315879 -1.19191439 10.23512666 -1.75 11.5625 C-2.01554688 12.23474609 -2.28109375 12.90699219 -2.5546875 13.59960938 C-3.92533873 16.94972052 -5.13195079 19.71074385 -8 22 C-5.92957946 14.39162534 -3.14169523 7.2271408 0 0 Z " fill="#797875" transform="translate(144,121)"/>
<path d="M0 0 C3.34252724 -0.07427838 5.8035914 -0.06546953 9 1 C11.3406065 0.72230092 13.67624308 0.39460023 16 0 C12.14059254 3.85940746 5.64014262 3.94344336 0.375 4.125 C-0.40875 4.08375 -1.1925 4.0425 -2 4 C-1.34 2.68 -0.68 1.36 0 0 Z " fill="#5D534C" transform="translate(37,445)"/>
<path d="M0 0 C0.66 0.33 1.32 0.66 2 1 C-3.91684902 8.84245077 -3.91684902 8.84245077 -8.4375 9.5 C-9.283125 9.335 -10.12875 9.17 -11 9 C-7.56638098 5.36440339 -4.2026393 2.63886654 0 0 Z " fill="#A8A49E" transform="translate(296,258)"/>
<path d="M0 0 C0.56332031 0.22171875 1.12664062 0.4434375 1.70703125 0.671875 C-1.93686435 5.30956031 -6.92391772 6.74557425 -12.29296875 8.671875 C-11.10001742 5.09302101 -10.04829813 4.49052591 -6.98046875 2.421875 C-5.81064453 1.60976563 -5.81064453 1.60976563 -4.6171875 0.78125 C-2.29296875 -0.328125 -2.29296875 -0.328125 0 0 Z " fill="#98948C" transform="translate(68.29296875,417.328125)"/>
<path d="M0 0 C0.99 0.33 1.98 0.66 3 1 C1.42686828 5.72843614 -1.20641235 9.3433843 -4.125 13.3125 C-4.59292969 13.95767578 -5.06085938 14.60285156 -5.54296875 15.26757812 C-6.6905929 16.84848894 -7.84465477 18.42472301 -9 20 C-9.33 19.34 -9.66 18.68 -10 18 C-9.36191406 17.11957031 -8.72382813 16.23914063 -8.06640625 15.33203125 C-7.23132838 14.15916907 -6.39671745 12.98597432 -5.5625 11.8125 C-5.14162109 11.23435547 -4.72074219 10.65621094 -4.28710938 10.06054688 C-1.94306469 6.7413796 -0.42160245 4.07038001 0 0 Z " fill="#968F89" transform="translate(171,223)"/>
<path d="M0 0 C1.04940487 3.14821462 0.98606526 3.9349491 0.22265625 7.01171875 C0.03896484 7.76904297 -0.14472656 8.52636719 -0.33398438 9.30664062 C-0.53314453 10.09232422 -0.73230469 10.87800781 -0.9375 11.6875 C-1.13279297 12.48478516 -1.32808594 13.28207031 -1.52929688 14.10351562 C-2.01228382 16.07080389 -2.5051963 18.03565054 -3 20 C-3.33 20 -3.66 20 -4 20 C-4.22857874 13.82837394 -3.79074848 7.94705358 -2 2 C-1.34 1.34 -0.68 0.68 0 0 Z " fill="#8A8884" transform="translate(106,54)"/>
<path d="M0 0 C0.66 0.33 1.32 0.66 2 1 C0.21558282 3.65079048 -1.57872643 6.29473251 -3.375 8.9375 C-3.88289062 9.69224609 -4.39078125 10.44699219 -4.9140625 11.22460938 C-5.64882812 12.30258789 -5.64882812 12.30258789 -6.3984375 13.40234375 C-6.84880371 14.06741943 -7.29916992 14.73249512 -7.76318359 15.41772461 C-9 17 -9 17 -11 18 C-11 16.02 -11 14.04 -11 12 C-9.68 12 -8.36 12 -7 12 C-6.773125 11.319375 -6.54625 10.63875 -6.3125 9.9375 C-4.64427643 6.20385676 -2.44270392 3.27836579 0 0 Z " fill="#96928B" transform="translate(228,144)"/>
<path d="M0 0 C1.15941038 3.47823115 0.70820884 5.45895578 0 9 C-0.66 9 -1.32 9 -2 9 C-2.33 11.31 -2.66 13.62 -3 16 C-3.99 16.33 -4.98 16.66 -6 17 C-5.49487476 10.77012202 -2.67395877 5.54525767 0 0 Z " fill="#84827F" transform="translate(166,66)"/>
<path d="M0 0 C-0.66 1.32 -1.32 2.64 -2 4 C-1.34 4.33 -0.68 4.66 0 5 C0.33 4.01 0.66 3.02 1 2 C1.66 2.66 2.32 3.32 3 4 C0.60236815 6.39763185 -0.33273498 6.34280586 -3.625 6.625 C-4.44226563 6.69976562 -5.25953125 6.77453125 -6.1015625 6.8515625 C-6.72804688 6.90054687 -7.35453125 6.94953125 -8 7 C-4.13157895 0 -4.13157895 0 0 0 Z " fill="#CEC7BE" transform="translate(35,441)"/>
<path d="M0 0 C1.61582535 4.0100056 0.28787304 6.67804481 -1.25 10.5625 C-1.68828125 11.69816406 -2.1265625 12.83382812 -2.578125 14.00390625 C-3.83415439 16.6505396 -4.77576253 18.16173315 -7 20 C-6.29937517 15.43263559 -4.68729793 11.4300495 -2.9375 7.1875 C-2.51500977 6.14819336 -2.51500977 6.14819336 -2.08398438 5.08789062 C-1.39325027 3.39032376 -0.69716272 1.69493688 0 0 Z " fill="#777370" transform="translate(127,164)"/>
<path d="M0 0 C-1.32 0.33 -2.64 0.66 -4 1 C-4 1.66 -4 2.32 -4 3 C-5.41538717 3.33872513 -6.83237963 3.67074624 -8.25 4 C-9.03890625 4.185625 -9.8278125 4.37125 -10.640625 4.5625 C-13 5 -13 5 -17 5 C-17 4.34 -17 3.68 -17 3 C-15.10614563 2.49255577 -13.20981334 1.99435426 -11.3125 1.5 C-9.72888672 1.08234375 -9.72888672 1.08234375 -8.11328125 0.65625 C-5.28857328 0.0608285 -2.87163292 -0.12786492 0 0 Z " fill="#827C76" transform="translate(142,425)"/>
<path d="M0 0 C1.53508028 2.43338652 2.03088304 3.67124507 1.7578125 6.578125 C1.54898438 7.45984375 1.34015625 8.3415625 1.125 9.25 C0.92132813 10.14203125 0.71765625 11.0340625 0.5078125 11.953125 C0.34023437 12.62859375 0.17265625 13.3040625 0 14 C-0.66 14 -1.32 14 -2 14 C-2.33 14.66 -2.66 15.32 -3 16 C-2.67241229 13.33250007 -2.33906139 10.66604434 -2 8 C-1.835 6.700625 -1.67 5.40125 -1.5 4.0625 C-1 1 -1 1 0 0 Z " fill="#9B9591" transform="translate(67,218)"/>
<path d="M0 0 C3.32922438 6.65844876 -0.13560584 15.34144942 -2 22 C-2.33 22 -2.66 22 -3 22 C-2.88482579 19.64499052 -2.75812022 17.29150927 -2.625 14.9375 C-2.55539063 13.62652344 -2.48578125 12.31554687 -2.4140625 10.96484375 C-2.00194564 7.01863043 -1.20243433 3.75882927 0 0 Z " fill="#9B9892" transform="translate(87,130)"/>
<path d="M0 0 C0.66 0.66 1.32 1.32 2 2 C-5.08235294 8.09411765 -5.08235294 8.09411765 -9 10 C-9.99 9.67 -10.98 9.34 -12 9 C-8.04 6.03 -4.08 3.06 0 0 Z " fill="#99938E" transform="translate(138,367)"/>
<path d="M0 0 C0.66 0.33 1.32 0.66 2 1 C0.61536194 2.32430525 -0.7832323 3.63402803 -2.1875 4.9375 C-2.96480469 5.66839844 -3.74210937 6.39929688 -4.54296875 7.15234375 C-7.13122646 9.09868063 -8.81859299 9.64399886 -12 10 C-8.29909479 6.0747975 -4.45040344 3.05419844 0 0 Z " fill="#9D9490" transform="translate(124,377)"/>
<path d="M0 0 C-2.07772471 0.86772029 -4.16243177 1.71873619 -6.25 2.5625 C-7.99023438 3.27599609 -7.99023438 3.27599609 -9.765625 4.00390625 C-12.86266644 4.95770524 -14.07321701 5.20983356 -17 4 C-6.08118361 -1.85887709 -6.08118361 -1.85887709 0 0 Z " fill="#756D68" transform="translate(58,440)"/>
<path d="M0 0 C0.33 0 0.66 0 1 0 C0.46246904 6.18160604 -1.54582388 11.326858 -4 17 C-4.66 16.01 -5.32 15.02 -6 14 C-5.15528873 11.46291265 -4.25737906 9.2145892 -3.125 6.8125 C-2.82980469 6.15830078 -2.53460938 5.50410156 -2.23046875 4.83007812 C-1.49929565 3.21442144 -0.75122431 1.60643165 0 0 Z " fill="#86807C" transform="translate(91,255)"/>
<path d="M0 0 C0.66 0.33 1.32 0.66 2 1 C1.67 1.33 1.34 1.66 1 2 C2.98 2 4.96 2 7 2 C4.53698577 4.46301423 2.72639964 4.76766521 -0.625 5.625 C-1.62789062 5.88539063 -2.63078125 6.14578125 -3.6640625 6.4140625 C-4.43492188 6.60742188 -5.20578125 6.80078125 -6 7 C-4.47427344 3.67364118 -3.06655496 2.04436998 0 0 Z " fill="#BAB2AA" transform="translate(27,445)"/>
<path d="M0 0 C-1.19625 0.433125 -2.3925 0.86625 -3.625 1.3125 C-7.21232201 2.6529584 -10.60611779 4.21821184 -14 6 C-14.66 5.34 -15.32 4.68 -16 4 C-15.01 3.34 -14.02 2.68 -13 2 C-13 1.67 -13 1.34 -13 1 C-11.58622218 0.63447197 -10.16879424 0.28304505 -8.75 -0.0625 C-7.96109375 -0.25972656 -7.1721875 -0.45695312 -6.359375 -0.66015625 C-3.89605178 -1.01497267 -2.34395868 -0.76877544 0 0 Z " fill="#98958C" transform="translate(332,382)"/>
<path d="M0 0 C-5.37180176 2.62875405 -10.04492601 3.6083965 -16 4 C-16 3.34 -16 2.68 -16 2 C-14.08654673 1.46748234 -12.1690705 0.94940517 -10.25 0.4375 C-9.18265625 0.14746094 -8.1153125 -0.14257812 -7.015625 -0.44140625 C-4.15664073 -0.97098494 -2.68402617 -0.98370862 0 0 Z " fill="#7F7B76" transform="translate(349,378)"/>
<path d="M0 0 C1.65 0.33 3.3 0.66 5 1 C3.68 1.33 2.36 1.66 1 2 C1 2.66 1 3.32 1 4 C-0.20703125 5.67578125 -0.20703125 5.67578125 -2 7 C-4.26171875 6.85546875 -4.26171875 6.85546875 -6.6875 6.1875 C-7.49574219 5.97480469 -8.30398438 5.76210938 -9.13671875 5.54296875 C-9.75160156 5.36378906 -10.36648438 5.18460937 -11 5 C-8.45215202 3.62935727 -6.72758854 2.95726879 -3.8125 2.5 C-2.4203125 2.2525 -2.4203125 2.2525 -1 2 C-0.67 1.34 -0.34 0.68 0 0 Z " fill="#BCB8AF" transform="translate(379,369)"/>
<path d="M0 0 C0.33 0 0.66 0 1 0 C0.46148032 5.27749285 -0.77343836 9.25645564 -3 14 C-3.66 14 -4.32 14 -5 14 C-4.54636829 12.41531323 -4.08688548 10.83230076 -3.625 9.25 C-3.36976563 8.36828125 -3.11453125 7.4865625 -2.8515625 6.578125 C-2.0790066 4.23919428 -1.16374324 2.16557438 0 0 Z " fill="#86837F" transform="translate(133,149)"/>
<path d="M0 0 C0 0.66 0 1.32 0 2 C-4.17737474 3.59138085 -7.53160785 4.21278058 -12 4 C-12 3.34 -12 2.68 -12 2 C-7.8803623 0.70756464 -4.33168317 -0.26252625 0 0 Z " fill="#85807C" transform="translate(115,431)"/>
<path d="M0 0 C1.6852084 4.07679159 0.16939007 6.83075593 -1.4375 10.75 C-1.91058594 11.92046875 -2.38367188 13.0909375 -2.87109375 14.296875 C-3.24363281 15.18890625 -3.61617187 16.0809375 -4 17 C-4.33 17 -4.66 17 -5 17 C-4.46246904 10.81839396 -2.45417612 5.673142 0 0 Z " fill="#88857D" transform="translate(179,33)"/>
<path d="M0 0 C1.2640688 3.79220639 0.5071619 5.31378898 -0.75 9.0625 C-1.09546875 10.12597656 -1.4409375 11.18945312 -1.796875 12.28515625 C-3 15 -3 15 -6 17 C-5.34496718 12.94180817 -4.05440879 9.46028718 -2.4375 5.6875 C-1.75494141 4.08455078 -1.75494141 4.08455078 -1.05859375 2.44921875 C-0.53458984 1.23685547 -0.53458984 1.23685547 0 0 Z " fill="#67625F" transform="translate(33,401)"/>
<path d="M0 0 C-3.46735947 3.03393954 -7.52949826 4.9351577 -12 6 C-12.99 5.67 -13.98 5.34 -15 5 C-5.77448747 -0.74031891 -5.77448747 -0.74031891 0 0 Z " fill="#908C87" transform="translate(137,407)"/>
<path d="M0 0 C1.03115279 3.26913624 0.9638984 5.86041348 0.5625 9.25 C0.46066406 10.14203125 0.35882813 11.0340625 0.25390625 11.953125 C0.12822266 12.96632813 0.12822266 12.96632813 0 14 C-0.66 14 -1.32 14 -2 14 C-2.33 14.66 -2.66 15.32 -3 16 C-2.40984815 10.49191603 -1.43336231 5.35121931 0 0 Z " fill="#99948F" transform="translate(58,257)"/>
<path d="M0 0 C0.66 0.33 1.32 0.66 2 1 C0 4 0 4 -3.0625 5 C-4.5165625 5.495 -4.5165625 5.495 -6 6 C-6.33 6.99 -6.66 7.98 -7 9 C-8.32 8.67 -9.64 8.34 -11 8 C-7.37 5.36 -3.74 2.72 0 0 Z " fill="#9A918C" transform="translate(390,193)"/>
<path d="M0 0 C4.96702804 1.27063508 7.71893937 3.04342689 11 7 C11 7.99 11 8.98 11 10 C10.401875 9.360625 9.80375 8.72125 9.1875 8.0625 C7.09189663 5.79689611 7.09189663 5.79689611 4 5 C2.61423077 3.37667033 1.27358732 1.71275535 0 0 Z " fill="#999590" transform="translate(291,9)"/>
<path d="M0 0 C1.32 0.66 2.64 1.32 4 2 C-2.05473373 4.57886807 -7.44074057 5.61020794 -14 6 C-11.37548383 3.37548383 -9.5122172 3.4167132 -5.875 2.875 C-4.77929688 2.70742188 -3.68359375 2.53984375 -2.5546875 2.3671875 C-1.71164063 2.24601562 -0.86859375 2.12484375 0 2 C0 1.34 0 0.68 0 0 Z " fill="#A39B95" transform="translate(53,444)"/>
<path d="M0 0 C3 0 3 0 5 1 C2.69 3.64 0.38 6.28 -2 9 C-2.33 8.34 -2.66 7.68 -3 7 C-3.66 6.67 -4.32 6.34 -5 6 C-4.360625 5.566875 -3.72125 5.13375 -3.0625 4.6875 C-0.73253997 3.08760823 -0.73253997 3.08760823 0 0 Z " fill="#C7C0B7" transform="translate(55,424)"/>
<path d="M0 0 C0.66 0.33 1.32 0.66 2 1 C-3.75 6 -3.75 6 -6 6 C-6 6.66 -6 7.32 -6 8 C-7.65 8.33 -9.3 8.66 -11 9 C-7.56638098 5.36440339 -4.2026393 2.63886654 0 0 Z " fill="#A29D9A" transform="translate(344,225)"/>
<path d="M0 0 C0.66 0.33 1.32 0.66 2 1 C-0.64 3.64 -3.28 6.28 -6 9 C-6.99 8.34 -7.98 7.68 -9 7 C-6.03 4.69 -3.06 2.38 0 0 Z " fill="#A5A29D" transform="translate(364,211)"/>
<path d="M0 0 C1.25955231 3.77865693 0.48087189 5.03411786 -0.9375 8.6875 C-1.31777344 9.68136719 -1.69804688 10.67523438 -2.08984375 11.69921875 C-2.39019531 12.45847656 -2.69054688 13.21773438 -3 14 C-3.66 14 -4.32 14 -5 14 C-4.54636829 12.41531323 -4.08688548 10.83230076 -3.625 9.25 C-3.36976562 8.36828125 -3.11453125 7.4865625 -2.8515625 6.578125 C-2.0790066 4.23919428 -1.16374324 2.16557438 0 0 Z " fill="#78736F" transform="translate(45,371)"/>
<path d="M0 0 C0 0.66 0 1.32 0 2 C-4.26616316 3.13764351 -7.56486311 4 -12 4 C-12 3.34 -12 2.68 -12 2 C-10.7625 1.67 -9.525 1.34 -8.25 1 C-7.55390625 0.814375 -6.8578125 0.62875 -6.140625 0.4375 C-4 0 -4 0 0 0 Z " fill="#898785" transform="translate(432,358)"/>
<path d="M0 0 C0.33 0.99 0.66 1.98 1 3 C-1.52956528 6.0916909 -4.22454612 6.90931332 -8 8 C-6.49776416 3.79373966 -3.71449966 2.26099979 0 0 Z " fill="#918D83" transform="translate(203,322)"/>
<path d="M0 0 C0 3.83764027 -1.26535335 5.11486085 -3.5 8.1875 C-4.1496875 9.08855469 -4.799375 9.98960937 -5.46875 10.91796875 C-5.9740625 11.60503906 -6.479375 12.29210937 -7 13 C-7.33 12.01 -7.66 11.02 -8 10 C-6.34765625 7.51953125 -6.34765625 7.51953125 -4.0625 4.8125 C-3.31097656 3.91144531 -2.55945313 3.01039063 -1.78515625 2.08203125 C-0.90150391 1.05142578 -0.90150391 1.05142578 0 0 Z " fill="#958B87" transform="translate(137,276)"/>
<path d="M0 0 C1.13089582 3.39268745 0.86432909 4.22256151 -0.25 7.5 C-0.62898437 8.66015625 -0.62898437 8.66015625 -1.015625 9.84375 C-2.04546257 12.09958469 -3.14843664 13.37728155 -5 15 C-4.37321829 11.33827525 -3.35548154 8.1181005 -1.9375 4.6875 C-1.39416016 3.36298828 -1.39416016 3.36298828 -0.83984375 2.01171875 C-0.56269531 1.34785156 -0.28554687 0.68398437 0 0 Z " fill="#74716D" transform="translate(157,88)"/>
<path d="M0 0 C1.0326802 2.78823655 1.04509293 3.8677274 0.0625 6.75 C-0.288125 7.4925 -0.63875 8.235 -1 9 C-1.66 9 -2.32 9 -3 9 C-3.1875 5.625 -3.1875 5.625 -3 2 C-2.01 1.34 -1.02 0.68 0 0 Z " fill="#C8BFB7" transform="translate(18,431)"/>
<path d="M0 0 C1.18771723 3.42943519 0.80226223 5.37784675 -0.4375 8.75 C-0.86869141 9.94882812 -0.86869141 9.94882812 -1.30859375 11.171875 C-1.53675781 11.77515625 -1.76492187 12.3784375 -2 13 C-3.1171875 11.296875 -3.1171875 11.296875 -4 9 C-3.3203125 6.640625 -3.3203125 6.640625 -2.125 4.25 C-1.73570313 3.45078125 -1.34640625 2.6515625 -0.9453125 1.828125 C-0.63335937 1.22484375 -0.32140625 0.6215625 0 0 Z " fill="#8A8682" transform="translate(76,293)"/>
<path d="M0 0 C-1.24663331 0.50833591 -2.49749387 1.00631145 -3.75 1.5 C-4.44609375 1.7784375 -5.1421875 2.056875 -5.859375 2.34375 C-8 3 -8 3 -12 3 C-12 2.34 -12 1.68 -12 1 C-3.96428571 -1.27678571 -3.96428571 -1.27678571 0 0 Z " fill="#7E7971" transform="translate(102,435)"/>
<path d="M0 0 C0.33 0 0.66 0 1 0 C2.13016601 5.02296004 1.77916092 8.97874074 1 14 C0.01 14.33 -0.98 14.66 -2 15 C-1.34 10.05 -0.68 5.1 0 0 Z " fill="#7F7876" transform="translate(22,413)"/>
<path d="M0 0 C0.99 0 1.98 0 3 0 C1.6062718 4.43458973 -0.60582235 6.87378374 -4 10 C-3.52449439 8.51965236 -3.04448784 7.04074979 -2.5625 5.5625 C-2.29566406 4.73878906 -2.02882813 3.91507812 -1.75390625 3.06640625 C-1 1 -1 1 0 0 Z " fill="#918D89" transform="translate(95,334)"/>
<path d="M0 0 C0.99386719 0.00902344 1.98773438 0.01804687 3.01171875 0.02734375 C4.15060547 0.04474609 4.15060547 0.04474609 5.3125 0.0625 C2.63157309 2.74342691 0.92082637 2.44920257 -2.8125 2.6875 C-3.90820312 2.76226562 -5.00390625 2.83703125 -6.1328125 2.9140625 C-6.97585937 2.96304687 -7.81890625 3.01203125 -8.6875 3.0625 C-8.6875 2.4025 -8.6875 1.7425 -8.6875 1.0625 C-5.53819107 0.01273036 -3.29935544 -0.03881595 0 0 Z " fill="#A19A95" transform="translate(202.6875,410.9375)"/>
<path d="M0 0 C0 0.99 0 1.98 0 3 C-1.64453125 4.640625 -1.64453125 4.640625 -3.8125 6.25 C-4.52019531 6.79140625 -5.22789062 7.3328125 -5.95703125 7.890625 C-6.96830078 8.43976563 -6.96830078 8.43976563 -8 9 C-8.99 8.67 -9.98 8.34 -11 8 C-7.37 5.36 -3.74 2.72 0 0 Z " fill="#827B79" transform="translate(183,336)"/>
<path d="M0 0 C-3.28463659 2.18975773 -6.20696275 2.99806563 -10 4 C-10 3.34 -10 2.68 -10 2 C-3.375 -1.125 -3.375 -1.125 0 0 Z " fill="#9D948F" transform="translate(148,403)"/>
<path d="M0 0 C-6.4 3.07692308 -6.4 3.07692308 -9.4375 2.6875 C-9.953125 2.460625 -10.46875 2.23375 -11 2 C-10.01 2 -9.02 2 -8 2 C-8 1.34 -8 0.68 -8 0 C-4.94736336 -0.98120464 -3.05263664 -0.98120464 0 0 Z " fill="#8E8982" transform="translate(89,438)"/>
<path d="M0 0 C0.66 0.33 1.32 0.66 2 1 C0.35 3.64 -1.3 6.28 -3 9 C-3.99 8.67 -4.98 8.34 -6 8 C-4.02 5.36 -2.04 2.72 0 0 Z " fill="#938F88" transform="translate(84,352)"/>
<path d="M0 0 C0.33 0.99 0.66 1.98 1 3 C-0.75 4.5625 -0.75 4.5625 -3 6 C-4.32 5.67 -5.64 5.34 -7 5 C-4.69 3.35 -2.38 1.7 0 0 Z " fill="#ACA79C" transform="translate(353,219)"/>
<path d="M0 0 C1.46795245 3.81667636 0.59626457 6.32859149 -1 10 C-1.99 10.66 -2.98 11.32 -4 12 C-3.52309796 10.37433394 -3.04340334 8.74948689 -2.5625 7.125 C-2.29566406 6.22007812 -2.02882812 5.31515625 -1.75390625 4.3828125 C-1 2 -1 2 0 0 Z " fill="#CBC7C1" transform="translate(143,128)"/>
<path d="M0 0 C-2.24578708 2.24578708 -4.069792 2.85650419 -7 4 C-7.99 4.66 -8.98 5.32 -10 6 C-8.20404732 1.26521567 -5.07984355 -1.69328118 0 0 Z " fill="#7C7975" transform="translate(198,10)"/>
<path d="M0 0 C0.66 0.33 1.32 0.66 2 1 C0.90716423 2.03295436 -0.19970579 3.05107835 -1.3125 4.0625 C-1.92738281 4.63097656 -2.54226563 5.19945312 -3.17578125 5.78515625 C-3.77777344 6.18605469 -4.37976563 6.58695313 -5 7 C-5.99 6.67 -6.98 6.34 -8 6 C-5.36 4.02 -2.72 2.04 0 0 Z " fill="#95918F" transform="translate(315,245)"/>
<path d="M0 0 C0 0.66 0 1.32 0 2 C-2.64 2.33 -5.28 2.66 -8 3 C-8 2.34 -8 1.68 -8 1 C-5.07175348 0.02391783 -3.04386724 -0.08226668 0 0 Z " fill="#837F7A" transform="translate(124,429)"/>
<path d="M0 0 C-2.93828597 2.50298434 -5.17902761 3.46930939 -9 4 C-9 3.34 -9 2.68 -9 2 C-5.86501708 0.14223235 -3.62528568 -0.20140476 0 0 Z " fill="#908985" transform="translate(117,415)"/>
<path d="M0 0 C0.66 0.33 1.32 0.66 2 1 C-0.55068845 3.35448165 -1.71017358 3.98327924 -5.25 4.1875 C-6.1575 4.125625 -7.065 4.06375 -8 4 C-5.31143836 2.20762558 -3.0466145 1.01553817 0 0 Z " fill="#958E88" transform="translate(264,355)"/>
<path d="M0 0 C0.99 0 1.98 0 3 0 C1.25 5.75 1.25 5.75 -1 8 C-2.2077558 4.37673261 -1.54311128 3.35853631 0 0 Z " fill="#9A9591" transform="translate(57,340)"/>
<path d="M0 0 C-2.93828597 2.50298434 -5.17902761 3.46930939 -9 4 C-8.67 3.01 -8.34 2.02 -8 1 C-5.07175348 0.02391783 -3.04386724 -0.08226668 0 0 Z " fill="#8D8985" transform="translate(337,328)"/>
<path d="M0 0 C0.66 0.33 1.32 0.66 2 1 C-0.57404971 4.86107457 -2.61020259 4.94319692 -7 6 C-4.74259377 3.66475218 -2.7194239 1.81294927 0 0 Z " fill="#888580" transform="translate(283,267)"/>
<path d="M0 0 C0 0.99 0 1.98 0 3 C-1.8125 4.75 -1.8125 4.75 -4 6 C-4.99 5.67 -5.98 5.34 -7 5 C-4.69 3.35 -2.38 1.7 0 0 Z " fill="#9B9991" transform="translate(305,252)"/>
<path d="M0 0 C0.66 0.99 1.32 1.98 2 3 C0.71034824 4.37562854 -0.62689293 5.70766393 -2 7 C-2.66 7 -3.32 7 -4 7 C-3.67 5.35 -3.34 3.7 -3 2 C-2.01 2 -1.02 2 0 2 C0 1.34 0 0.68 0 0 Z " fill="#9F9C97" transform="translate(109,214)"/>
<path d="M0 0 C0.66 0 1.32 0 2 0 C0.75023244 3.65316671 0.32901247 4.78065836 -3 7 C-3 5.35 -3 3.7 -3 2 C-2.01 2 -1.02 2 0 2 C0 1.34 0 0.68 0 0 Z " fill="#A09D97" transform="translate(294,48)"/>
<path d="" fill="#FFFFFF" transform="translate(0,0)"/>
<path d="" fill="#FFFFFF" transform="translate(0,0)"/>
<path d="" fill="#FFFFFF" transform="translate(0,0)"/>
<path d="" fill="#FFFFFF" transform="translate(0,0)"/>
<path d="" fill="#FFFFFF" transform="translate(0,0)"/>
<path d="" fill="#FFFFFF" transform="translate(0,0)"/>
<path d="" fill="#FFFFFF" transform="translate(0,0)"/>
<path d="" fill="#FFFFFF" transform="translate(0,0)"/>
<path d="" fill="#FFFFFF" transform="translate(0,0)"/>
<path d="" fill="#FFFFFF" transform="translate(0,0)"/>
<path d="" fill="#FFFFFF" transform="translate(0,0)"/>
<path d="" fill="#FFFFFF" transform="translate(0,0)"/>
<path d="" fill="#FFFFFF" transform="translate(0,0)"/>
<path d="" fill="#FFFFFF" transform="translate(0,0)"/>
<path d="" fill="#FFFFFF" transform="translate(0,0)"/>
<path d="" fill="#FFFFFF" transform="translate(0,0)"/>
<path d="" fill="#FFFFFF" transform="translate(0,0)"/>
<path d="" fill="#FFFFFF" transform="translate(0,0)"/>
<path d="" fill="#FFFFFF" transform="translate(0,0)"/>
<path d="" fill="#FFFFFF" transform="translate(0,0)"/>
<path d="" fill="#FFFFFF" transform="translate(0,0)"/>
<path d="" fill="#FFFFFF" transform="translate(0,0)"/>
<path d="" fill="#FFFFFF" transform="translate(0,0)"/>
<path d="" fill="#FFFFFF" transform="translate(0,0)"/>
<path d="" fill="#FFFFFF" transform="translate(0,0)"/>
<path d="" fill="#FFFFFF" transform="translate(0,0)"/>
<path d="" fill="#FFFFFF" transform="translate(0,0)"/>
<path d="" fill="#FFFFFF" transform="translate(0,0)"/>
<path d="" fill="#FFFFFF" transform="translate(0,0)"/>
<path d="" fill="#FFFFFF" transform="translate(0,0)"/>
<path d="" fill="#FFFFFF" transform="translate(0,0)"/>
<path d="" fill="#FFFFFF" transform="translate(0,0)"/>
<path d="" fill="#FFFFFF" transform="translate(0,0)"/>
<path d="" fill="#FFFFFF" transform="translate(0,0)"/>
<path d="" fill="#FFFFFF" transform="translate(0,0)"/>
</svg>
